<svg width="36" height="36" viewBox="0 0 36 36" fill="none" xmlns="http://www.w3.org/2000/svg">
  <defs>
    <linearGradient id="gGrad" x1="0" y1="0" x2="36" y2="36" gradientUnits="userSpaceOnUse">
      <stop offset="0%" stop-color="#22C55E"/>
      <stop offset="100%" stop-color="#16A34A"/>
    </linearGradient>
  </defs>
  <!-- Shield shape -->
  <path d="M18 2L4 8v10c0 8.5 5.8 16.4 14 18.5 8.2-2.1 14-10 14-18.5V8L18 2z" fill="#111827" stroke="url(#gGrad)" stroke-width="1.5"/>
  <!-- S letterform -->
  <path d="M22.5 13.5c0-2.2-1.8-3.5-4.5-3.5s-4.5 1.3-4.5 3.5c0 2 1.5 3 4.5 3.8 3 .8 4.5 1.8 4.5 3.7 0 2.2-1.8 3.5-4.5 3.5s-4.5-1.3-4.5-3.5" stroke="url(#gGrad)" stroke-width="2.5" stroke-linecap="round" fill="none"/>
</svg>
