<svg width="23" height="20" viewBox="0 0 23 20" fill="none" xmlns="http://www.w3.org/2000/svg">
<g id="Group">
<path id="Vector" d="M19.6 2.1001H18V1.4001C18 1.0001 17.6 0.600098 17.2 0.600098C16.8 0.600098 16.4 1.0001 16.4 1.4001V2.2001H11.7V1.4001C11.7 1.0001 11.3 0.600098 10.9 0.600098C10.5 0.600098 10.1 1.0001 10.1 1.4001V2.2001H5.5V1.4001C5.5 1.0001 5.1 0.600098 4.7 0.600098C4.3 0.600098 3.9 0.900098 3.9 1.4001V2.2001H2.4C1.1 2.1001 0 3.2001 0 4.5001V17.1001C0 18.4001 1.1 19.5001 2.4 19.5001H19.7C21 19.5001 22.1 18.4001 22.1 17.1001V4.5001C22 3.2001 20.9 2.1001 19.6 2.1001ZM20.4 17.1001C20.4 17.5001 20 17.9001 19.6 17.9001H2.4C2 17.9001 1.6 17.5001 1.6 17.1001V4.5001C1.6 4.1001 2 3.7001 2.4 3.7001H4V4.5001C4 4.9001 4.4 5.3001 4.8 5.3001C5.2 5.3001 5.6 4.9001 5.6 4.5001V3.7001H10.3V4.5001C10.3 4.9001 10.7 5.3001 11.1 5.3001C11.5 5.3001 11.9 4.9001 11.9 4.5001V3.7001H16.6V4.5001C16.6 4.9001 17 5.3001 17.4 5.3001C17.8 5.3001 18.2 4.9001 18.2 4.5001V3.7001H19.8C20.2 3.7001 20.6 4.1001 20.6 4.5001V17.1001H20.4Z" fill="#3FBE94"/>
<path id="Vector_2" d="M6.29995 16.3001C7.18361 16.3001 7.89995 15.5838 7.89995 14.7001C7.89995 13.8164 7.18361 13.1001 6.29995 13.1001C5.4163 13.1001 4.69995 13.8164 4.69995 14.7001C4.69995 15.5838 5.4163 16.3001 6.29995 16.3001Z" fill="#3FBE94"/>
<path id="Vector_3" d="M10.9999 16.3001C11.8836 16.3001 12.5999 15.5838 12.5999 14.7001C12.5999 13.8164 11.8836 13.1001 10.9999 13.1001C10.1162 13.1001 9.3999 13.8164 9.3999 14.7001C9.3999 15.5838 10.1162 16.3001 10.9999 16.3001Z" fill="#3FBE94"/>
<path id="Vector_4" d="M15.7001 16.3001C16.5838 16.3001 17.3001 15.5838 17.3001 14.7001C17.3001 13.8164 16.5838 13.1001 15.7001 13.1001C14.8164 13.1001 14.1001 13.8164 14.1001 14.7001C14.1001 15.5838 14.8164 16.3001 15.7001 16.3001Z" fill="#3FBE94"/>
<path id="Vector_5" d="M6.29995 10.0003C7.18361 10.0003 7.89995 9.28395 7.89995 8.40029C7.89995 7.51664 7.18361 6.80029 6.29995 6.80029C5.4163 6.80029 4.69995 7.51664 4.69995 8.40029C4.69995 9.28395 5.4163 10.0003 6.29995 10.0003Z" fill="#3FBE94"/>
<path id="Vector_6" d="M10.9999 10.0003C11.8836 10.0003 12.5999 9.28395 12.5999 8.40029C12.5999 7.51664 11.8836 6.80029 10.9999 6.80029C10.1162 6.80029 9.3999 7.51664 9.3999 8.40029C9.3999 9.28395 10.1162 10.0003 10.9999 10.0003Z" fill="#3FBE94"/>
<path id="Vector_7" d="M15.7001 10.0003C16.5838 10.0003 17.3001 9.28395 17.3001 8.40029C17.3001 7.51664 16.5838 6.80029 15.7001 6.80029C14.8164 6.80029 14.1001 7.51664 14.1001 8.40029C14.1001 9.28395 14.8164 10.0003 15.7001 10.0003Z" fill="#3FBE94"/>
</g>
</svg>
