<svg width="20" height="20" viewBox="0 0 20 20" fill="none" xmlns="http://www.w3.org/2000/svg">
<g id="Icons" clip-path="url(#clip0_387_2313)">
<path id="Vector" d="M19.9573 8.52574C19.2757 3.97932 15.4811 0.420132 10.8996 0.0362814C4.67725 -0.484719 -0.485083 4.6772 0.0363347 10.9003C0.419767 15.481 3.97938 19.2752 8.52537 19.9572C10.4597 20.2779 12.1255 18.7513 12.1255 16.8693C12.1255 14.25 14.2493 12.1263 16.8689 12.1263C18.6497 12.1263 20.2495 10.6081 19.9573 8.52574ZM2.34738 11.2181C1.69425 10.5646 1.69425 9.50585 2.34738 8.85272C3.00051 8.19959 4.05966 8.19959 4.71279 8.85272C5.36592 9.50585 5.36592 10.565 4.71279 11.2181C4.05966 11.8713 3.00051 11.8717 2.34738 11.2181ZM5.43533 16.3077C4.51167 16.3077 3.76278 15.5588 3.76278 14.6352C3.76278 13.7115 4.51167 12.9626 5.43533 12.9626C6.359 12.9626 7.10788 13.7115 7.10788 14.6352C7.10788 15.5588 6.359 16.3077 5.43533 16.3077ZM5.43533 7.10867C4.51167 7.10867 3.76278 6.35978 3.76278 5.43612C3.76278 4.51245 4.51167 3.76356 5.43533 3.76356C6.359 3.76356 7.10788 4.51245 7.10788 5.43612C7.10788 6.35978 6.359 7.10867 5.43533 7.10867ZM11.2173 4.71357C10.5638 5.3667 9.50507 5.3667 8.85194 4.71357C8.19881 4.06044 8.19881 3.0013 8.85194 2.34817C9.50507 1.69503 10.5642 1.69503 11.2173 2.34817C11.8709 3.0013 11.8709 4.06044 11.2173 4.71357ZM14.6344 7.10867C13.7107 7.10867 12.9618 6.35978 12.9618 5.43612C12.9618 4.51245 13.7107 3.76356 14.6344 3.76356C15.558 3.76356 16.3069 4.51245 16.3069 5.43612C16.3069 6.35978 15.558 7.10867 14.6344 7.10867Z" fill="white"/>
</g>
<defs>
<clipPath id="clip0_387_2313">
<rect width="20" height="20" fill="white"/>
</clipPath>
</defs>
</svg>
