<svg width="25" height="24" viewBox="0 0 25 24" fill="none" xmlns="http://www.w3.org/2000/svg">
<g id="Icons">
<path id="Vector" d="M12.3333 2C6.81075 2 2.33325 6.4775 2.33325 12C2.33325 17.5225 6.81075 22 12.3333 22C17.8558 22 22.3333 17.5225 22.3333 12C22.3333 6.4775 17.8558 2 12.3333 2ZM13.1666 16.8808V18.6667H11.4999V16.8858C9.72492 16.6492 8.60742 15.6167 8.54492 14.0867H10.4458C10.5366 14.8483 11.3049 15.3367 12.4116 15.3367C13.4341 15.3367 14.1566 14.8417 14.1566 14.1325C14.1566 13.5333 13.6883 13.1883 12.5358 12.9408L11.3116 12.6808C9.59909 12.3225 8.75992 11.4308 8.75992 9.99833C8.75992 8.47333 9.82159 7.40167 11.4999 7.1325V5.33333H13.1666V7.13C14.7966 7.39417 15.8966 8.45 15.9474 9.89417H14.0983C14.0074 9.15167 13.3166 8.6575 12.3666 8.6575C11.3833 8.6575 10.7324 9.11333 10.7324 9.82917C10.7324 10.4083 11.1816 10.7408 12.2816 10.975L13.4141 11.2158C15.3024 11.6133 16.1158 12.4267 16.1158 13.885C16.1166 15.5367 15.0116 16.6283 13.1666 16.8808Z" fill="white"/>
</g>
</svg>
