<svg width="138" height="120" viewBox="0 0 138 120" fill="none" xmlns="http://www.w3.org/2000/svg">
<g id="Sam_logo 1" clip-path="url(#clip0_177_1280)">
<g id="Group">
<path id="Vector" d="M40.1201 103.898L31.8821 90.1562L31.4345 90.2201C26.6983 90.8988 21.9374 91.7202 17.2799 92.6497L0.164398 96.0728L12.1551 80.8607L5.97775 72.603L11.1616 71.5701L3.5088 67.4044L10.2763 41.4066L11.6583 41.0771C16.4979 39.9164 21.4554 38.8836 26.3884 38.013L26.9491 37.9147V20.9468L28.036 20.2484C34.5822 16.0433 41.2907 12.8415 47.9746 10.7365C48.2746 10.6431 48.5992 10.5398 48.968 10.4316L49.814 10.1857C54.2797 8.91184 58.8439 8.0905 63.3883 7.75114L63.7129 7.72655L69 0L74.3658 7.83475L74.6806 7.86426C78.3742 8.21837 82.1317 8.88233 85.845 9.84139L88.7959 10.6677L88.8992 10.6972C88.9533 10.7119 89.0074 10.7316 89.0664 10.7463C95.9323 12.8464 102.946 16.0285 109.905 20.2041L111.056 20.8927V37.8261L111.617 37.9245C113.953 38.3327 116.289 38.7754 118.551 39.2377L120.051 39.5426L122.614 50.9332L123.037 51.0218C123.996 51.2234 124.965 51.4349 125.914 51.6513L126.966 51.8874L127.478 52.8366C129.652 56.8499 131.929 60.9517 134.24 65.0387L135.377 67.0454L127.62 71.7226L132.027 72.5981L125.85 80.8558L137.841 96.0679L120.72 92.6448C116.058 91.7152 111.297 90.8939 106.565 90.2152L106.118 90.1512L97.8799 103.893L69 119.995L40.1201 103.898Z" fill="#CFC5E8"/>
<path id="Vector_2" d="M29.3148 22.2452V81.264L41.8267 102.137L69 117.29L96.1732 102.137L108.685 81.264V22.2452C81.5366 5.95598 55.0666 5.69531 29.3148 22.2452Z" fill="#30195E"/>
<path id="Vector_3" d="M12.8338 83.8264C13.6059 82.8428 14.3781 81.864 15.1453 80.8902C14.7568 80.3738 14.3682 79.8623 13.9895 79.3508L10.1287 74.1916L16.4536 72.9325C17.6881 72.6866 20.6439 72.1505 23.6981 71.6144C23.8162 70.5324 23.9342 69.4356 24.0522 68.329L24.3867 65.2306L27.4655 64.7486C41.1382 62.6141 55.1158 61.532 69.0049 61.532C82.8989 61.532 96.8716 62.6141 110.544 64.7486L113.623 65.2306L113.958 68.329C114.076 69.416 114.194 70.5127 114.312 71.6144C117.366 72.1505 120.317 72.6866 121.556 72.9325L127.881 74.1916L124.02 79.3508C123.642 79.8574 123.253 80.3738 122.864 80.8902C123.632 81.864 124.404 82.8428 125.176 83.8264L132.003 92.4874L121.192 90.3283C115.93 89.2758 110.564 88.3708 105.242 87.6429L100.093 86.9347L100.29 82.5132C89.9418 81.2837 79.4266 80.6591 69.0098 80.6591C58.593 80.6591 48.0778 81.2837 37.7299 82.5132L37.6463 86.9741L32.7821 87.6429C27.4606 88.3758 22.0899 89.2758 16.8323 90.3283L6.022 92.4874L12.8338 83.8264Z" fill="#30195E"/>
<path id="Vector_4" d="M121.974 86.3396C120.543 84.5248 119.122 82.7198 117.715 80.9295C118.748 79.5869 119.761 78.2491 120.759 76.9163C119.112 76.5867 114.154 75.6965 110.594 75.0916C110.367 72.9817 110.141 70.8718 109.915 68.7618C82.8596 64.5371 55.1453 64.5371 28.0901 68.7618C27.8639 70.8718 27.6376 72.9817 27.4114 75.0916C23.8506 75.6965 18.893 76.5867 17.2454 76.9163C18.2438 78.2491 19.257 79.5869 20.2898 80.9295C18.8783 82.7198 17.4618 84.5248 16.0306 86.3396C21.4013 85.2674 26.8015 84.3576 32.2264 83.6149C30.4607 82.3755 28.6852 81.141 26.9048 79.9115C28.8229 79.6262 30.741 79.3459 32.6641 79.0705C32.6641 79.0655 32.6641 79.0655 32.6641 79.0606C56.7438 75.7703 81.2661 75.7703 105.346 79.0606C105.346 79.0655 105.346 79.0655 105.346 79.0705C107.269 79.3459 109.187 79.6262 111.105 79.9115C109.325 81.141 107.554 82.3755 105.783 83.6149C111.203 84.3576 116.609 85.2674 121.974 86.3396Z" fill="#18C3EA"/>
<path id="Vector_5" d="M125.397 53.9727C123.814 53.6186 122.225 53.2792 120.637 52.9546C119.781 49.1577 118.93 45.3658 118.074 41.5689C83.1104 34.4276 46.9712 35.0326 12.2091 43.3788C10.2271 50.9873 8.24996 58.6007 6.26791 66.2093L14.8355 70.8717C50.6747 61.3205 87.2171 61.4189 124.443 70.8717L132.18 66.2093C129.858 62.1074 127.596 58.0253 125.397 53.9727Z" fill="#30195E"/>
<path id="Vector_6" d="M12.2878 65.3142C21.4407 63.0567 30.7411 61.3796 40.1103 60.2385C49.4795 59.0975 58.9225 58.5024 68.3705 58.4778C77.8184 58.4532 87.2663 58.9991 96.6405 60.1254C106.015 61.2566 115.315 62.9632 124.443 65.3142C115.182 63.5682 105.872 62.1911 96.5126 61.291C87.1581 60.3861 77.7643 59.9434 68.3754 59.968C58.9816 59.9926 49.5927 60.4795 40.2382 61.3992C30.8837 62.3091 21.5636 63.6616 12.2878 65.3142Z" fill="#18C3EA"/>
<path id="Vector_7" d="M89.2435 82.587L84.222 90.9578L69 99.4467L53.7781 90.9578L48.7566 82.587L55.2831 89.5561L69 95.9498L82.712 89.5561L89.2435 82.587Z" fill="#18C3EA"/>
<path id="Vector_8" d="M81.8071 83.128L80.3169 84.7756L76.1167 86.797L69.0049 90.225L59.8964 85.8379L57.693 84.7756L56.1978 83.128C60.4718 82.6853 64.7605 82.4591 69.0049 82.4591C73.2444 82.4591 77.5331 82.6853 81.8071 83.128Z" fill="white"/>
<path id="Vector_9" d="M102.592 25.7519L101.524 25.1765C96.5077 22.4714 91.4813 20.3418 86.5925 18.8467C80.4595 16.9728 74.3117 16.0236 68.3213 16.0236C62.3752 16.0236 56.3847 16.9581 50.5173 18.8073C45.84 20.2779 41.1038 22.378 36.4315 25.0486L35.4085 25.6338V38.9819C36.0872 38.8885 36.761 38.795 37.4397 38.7065V26.8142C41.9891 24.2125 46.5778 22.1812 51.1272 20.7451C56.793 18.9598 62.5768 18.0548 68.3213 18.0548C74.1101 18.0548 80.0611 18.9746 85.9974 20.7894C90.773 22.2501 95.6519 24.3207 100.56 26.9618V38.6475C101.239 38.736 101.913 38.8246 102.592 38.918V25.7519Z" fill="white"/>
<path id="Vector_10" d="M85.9974 20.7894C80.0562 18.9746 74.1101 18.0548 68.3213 18.0548C62.5817 18.0548 56.7929 18.9598 51.1271 20.7451C46.5778 22.1763 41.9891 24.2125 37.4397 26.8142V38.7114C38.1184 38.6229 38.7922 38.5393 39.4709 38.4557V27.9995C43.558 25.747 47.6795 23.9567 51.737 22.678C57.2061 20.9566 62.7834 20.0812 68.3213 20.0812C73.9084 20.0812 79.6578 20.9714 85.4023 22.7272C89.691 24.0403 94.1027 25.8699 98.5242 28.1815V38.3917C99.2029 38.4753 99.8767 38.559 100.555 38.6475V26.9618C95.6519 24.3207 90.773 22.2501 85.9974 20.7894Z" fill="#CFC5E8"/>
<path id="Vector_11" d="M97.329 82.4591L90.9698 95.5416L68.9951 108.432V110.316L46.2138 97.6122L37.7004 83.4083L37.7151 82.5132C38.3004 82.4444 38.8906 82.3755 39.4808 82.3116C40.1988 82.2329 40.9169 82.1542 41.6399 82.0804L49.1402 94.5973L68.9951 105.668L88.85 94.5973L97.329 82.4591Z" fill="white"/>
<path id="Vector_12" d="M69 105.663V108.432L47.6991 96.1957L39.4808 82.3116C40.1988 82.2329 40.9169 82.1542 41.6399 82.0804L49.1402 94.5973L69 105.663Z" fill="#CFC5E8"/>
<path id="Vector_13" d="M89.2435 82.587L83.7547 89.9742L69 97.4991L54.2404 89.9742L48.7566 82.587L55.2831 89.5561L69 95.9498L82.712 89.5561L89.2435 82.587Z" fill="#1B9CDD"/>
<path id="Vector_14" d="M69 23.5337L60.4767 28.0143L62.1047 18.5221L55.2093 11.8038L64.7359 10.4168L69 4.19525L73.2592 10.4168L82.7907 11.8038L75.8954 18.5221L77.5233 28.0143L69 23.5337Z" fill="#30195E"/>
<path id="Vector_15" d="M69 19.2303L65.5327 21.055L66.1917 17.1941L63.3883 14.4596L67.2639 13.894L69 10.3824L70.7312 13.894L74.6117 14.4596L71.8034 17.1941L72.4674 21.055L69 19.2303Z" fill="#18C3EA"/>
<path id="Vector_16" d="M65.5327 21.055L69 17.2286L72.4674 21.055L69 19.2303L65.5327 21.055Z" fill="#1B9CDD"/>
<path id="Vector_17" d="M81.8071 83.128L80.3169 84.7756L76.1167 86.797C71.1886 84.5789 63.8605 85.2379 59.8914 85.8379L57.6881 84.7756L56.1929 83.128C60.4669 82.6853 64.7556 82.4591 69 82.4591C73.2445 82.4591 77.5332 82.6853 81.8071 83.128Z" fill="#CFC5E8"/>
<g id="Group_2">
<path id="Vector_18" d="M52.4108 33.3112L52.16 30.7439L52.096 30.075L51.8452 27.5077L54.4125 27.2569L55.0814 27.1929L57.6487 26.9421L58.3176 26.8782L60.8849 26.6273L61.1358 29.1946L58.5684 29.4455L57.8946 29.5094L55.3273 29.7602L54.6584 29.8242L54.7224 30.4931L55.3913 30.4291L57.9586 30.1783L58.6275 30.1143L61.1948 29.8635L61.4456 32.4308L61.5095 33.0997L61.7604 35.667L59.1931 35.9179L58.5242 35.9818L55.9569 36.2326L55.288 36.2966L52.7207 36.5474L52.4698 33.9801L55.0371 33.7293L55.706 33.6653L58.2733 33.4145L58.9422 33.3505L58.8783 32.6817L58.2094 32.7456L55.6421 32.9964L54.9732 33.0604L52.4108 33.3112Z" fill="white"/>
</g>
<g id="Group_3">
<path id="Vector_19" d="M64.4556 35.2195V32.6423V31.9734V29.3963V28.7225V26.1453H67.0327H67.7016H70.2788H70.9476H73.5248V28.7225V29.3914V31.9685V32.6374V35.2145H70.9476V32.6374V31.9685H70.2788H67.7016H67.0327V32.6374V35.2145H64.4556V35.2195ZM70.9525 28.7225H70.2837H67.7065H67.0376V29.3914H67.7065H70.2837H70.9525V28.7225Z" fill="white"/>
</g>
<g id="Group_4">
<path id="Vector_20" d="M75.9937 35.7359L76.1855 33.1637L76.2347 32.4948L76.4265 29.9225L76.4757 29.2537L76.6675 26.6814L79.2398 26.8732L79.9086 26.9224L82.4809 27.1142L83.1497 27.1634L85.722 27.3552L85.5302 29.9275L85.481 30.5963L85.2892 33.1686L85.24 33.8375L85.0482 36.4097L82.476 36.2179L82.6678 33.6456L82.7169 32.9768L82.9088 30.4045L82.9579 29.7357L82.2891 29.6865L82.2399 30.3553L82.0481 32.9276L81.9989 33.5965L81.8071 36.1687L79.2348 35.9769L79.4266 33.4047L79.4758 32.7358L79.6676 30.1635L79.7168 29.4947L79.0479 29.4455L78.9988 30.1144L78.8069 32.6866L78.7578 33.3555L78.566 35.9277L75.9937 35.7359Z" fill="white"/>
</g>
<g id="Group_5">
<g id="Group_6">
<path id="Vector_21" d="M40.4644 75.1211C40.1841 74.8949 39.9037 74.6686 39.6234 74.4375C39.589 74.1375 39.5545 73.8325 39.525 73.5325C39.8693 73.4932 40.2136 73.4587 40.5628 73.4194C40.5824 73.5817 40.5972 73.744 40.6169 73.9063C40.6759 73.9555 40.7398 74.0047 40.7988 74.0539C41.1825 74.0145 41.571 73.9752 41.9546 73.9358C42.0038 73.8768 42.053 73.8129 42.1022 73.7538C42.0727 73.4637 42.0432 73.1735 42.0136 72.8833C41.9595 72.8489 41.9104 72.8145 41.8563 72.7751C41.2759 72.8341 40.7005 72.8931 40.125 72.9571C39.8841 72.7653 39.6431 72.5735 39.4021 72.3866C39.343 71.8308 39.2791 71.275 39.2201 70.7193C39.4463 70.434 39.6775 70.1537 39.9086 69.8734C40.5923 69.7996 41.2759 69.7307 41.9595 69.6619C42.2448 69.893 42.5251 70.1193 42.8055 70.3504C42.8301 70.616 42.8547 70.8816 42.8842 71.1472C42.535 71.1816 42.1858 71.216 41.8415 71.2505C41.8268 71.1226 41.8169 70.9947 41.8022 70.8668C41.7431 70.8176 41.6792 70.7685 41.6202 70.7193C41.2316 70.7586 40.8382 70.798 40.4497 70.8422C40.4005 70.9013 40.3513 70.9652 40.3021 71.0242C40.3316 71.2996 40.3611 71.5751 40.3906 71.8554C40.4103 71.8702 40.43 71.8898 40.4497 71.9046C41.0103 71.8456 41.571 71.7865 42.1366 71.7324C42.4268 71.9292 42.712 72.1259 42.9973 72.3226C43.0563 72.9079 43.1104 73.4932 43.1694 74.0834C42.9383 74.3637 42.712 74.644 42.4858 74.9244C41.8071 74.9785 41.1333 75.0473 40.4644 75.1211Z" fill="white"/>
<path id="Vector_22" d="M51.9436 74.1375C51.5993 74.1571 51.255 74.1817 50.9107 74.2063C50.7927 72.4554 50.6747 70.6996 50.5517 68.9487C51.437 68.8897 52.3173 68.8307 53.2026 68.7815C53.478 69.0225 53.7486 69.2635 54.0191 69.5045C54.0535 70.0848 54.083 70.6652 54.1174 71.2455C53.8715 71.5111 53.6305 71.7767 53.3846 72.0472C52.8583 72.0767 52.3321 72.1111 51.8009 72.1456C51.8501 72.8095 51.8944 73.4735 51.9436 74.1375ZM51.6731 69.8979C51.6976 70.3061 51.7272 70.7144 51.7517 71.1275C52.1354 71.1029 52.5239 71.0783 52.9075 71.0537C52.9616 70.9947 53.0108 70.9406 53.0649 70.8816C53.0452 70.5865 53.0305 70.2865 53.0108 69.9914C52.9518 69.9422 52.8928 69.8881 52.8338 69.8389C52.4452 69.8537 52.0567 69.8733 51.6731 69.8979Z" fill="white"/>
<path id="Vector_23" d="M65.1195 69.1159C65.1392 70.3652 65.1539 71.6095 65.1736 72.8587C64.9228 73.1194 64.6769 73.38 64.426 73.6407C63.7572 73.6505 63.0834 73.6653 62.4145 73.685C62.1538 73.4341 61.8932 73.1833 61.6325 72.9374C61.5981 71.6882 61.5636 70.4438 61.5292 69.1946C61.785 68.929 62.0358 68.6684 62.2915 68.4077C62.9752 68.3929 63.6588 68.3782 64.3424 68.3634C64.6031 68.6143 64.8687 68.8651 65.1294 69.1208C65.1294 69.1159 65.1244 69.1159 65.1195 69.1159ZM64.1408 72.4603C64.1211 71.4914 64.1064 70.5225 64.0867 69.5536C64.0326 69.4995 63.9736 69.4454 63.9195 69.3913C63.526 69.3963 63.1375 69.4061 62.744 69.4159C62.6899 69.47 62.6358 69.5291 62.5817 69.5832C62.6063 70.552 62.626 71.5209 62.6506 72.4898C62.7047 72.5439 62.7637 72.598 62.8178 72.6521C63.2063 72.6423 63.5899 72.6374 63.9785 72.6275C64.0326 72.5734 64.0867 72.5144 64.1408 72.4603Z" fill="white"/>
<path id="Vector_24" d="M73.9379 73.626C73.5936 73.621 73.2494 73.6161 72.9051 73.6112C72.9297 71.8554 72.9543 70.0996 72.9838 68.3438C73.8691 68.3585 74.7544 68.3733 75.6396 68.3979C75.8905 68.6585 76.1462 68.9241 76.397 69.1848C76.3823 69.7651 76.3675 70.3504 76.3479 70.9308C76.1167 71.1472 75.8855 71.3636 75.6544 71.5849C75.8905 72.2882 76.1216 72.9964 76.3479 73.6997C75.9692 73.6899 75.5855 73.6801 75.2068 73.6702C75.0052 73.0013 74.7986 72.3275 74.592 71.6587C74.3855 71.6537 74.174 71.6488 73.9674 71.6488C73.9527 72.303 73.9428 72.962 73.9379 73.626ZM74.0166 69.3766C74.0068 69.7897 74.0019 70.2029 73.992 70.616C74.3756 70.6209 74.7642 70.6308 75.1478 70.6406C75.2019 70.5865 75.2609 70.5324 75.315 70.4783C75.3199 70.1783 75.3298 69.8783 75.3347 69.5783C75.2806 69.5242 75.2265 69.4651 75.1724 69.411C74.7888 69.4012 74.4002 69.3864 74.0166 69.3766Z" fill="white"/>
<path id="Vector_25" d="M87.7582 68.9684C87.7336 69.3077 87.709 69.6471 87.6893 69.9865C87.2516 69.957 86.8139 69.9274 86.3712 69.8979C86.2827 71.3095 86.1892 72.7259 86.1007 74.1375C85.7613 74.1178 85.422 74.0932 85.0777 74.0735C85.1613 72.662 85.2499 71.2455 85.3335 69.834C84.8957 69.8094 84.458 69.7799 84.0154 69.7602C84.0351 69.4209 84.0547 69.0815 84.0695 68.7422C85.304 68.8061 86.5286 68.8848 87.7582 68.9684Z" fill="white"/>
<path id="Vector_26" d="M95.524 74.9096C95.2978 74.6293 95.0666 74.349 94.8404 74.0686C94.8699 73.7686 94.8994 73.4637 94.9289 73.1637C95.2732 73.1981 95.6175 73.2325 95.9667 73.2669C95.9519 73.4292 95.9322 73.5915 95.9175 73.7539C95.9667 73.8129 96.0159 73.8768 96.065 73.9358C96.4487 73.9752 96.8372 74.0145 97.2208 74.0539C97.2798 74.0047 97.3438 73.9555 97.4028 73.9063C97.4323 73.6161 97.4667 73.326 97.4962 73.0358C97.452 72.9915 97.4077 72.9423 97.3634 72.8981C96.788 72.8391 96.2077 72.7751 95.6322 72.721C95.4355 72.4849 95.2388 72.2489 95.042 72.0128C95.0961 71.457 95.1502 70.8964 95.2043 70.3406C95.4847 70.1094 95.7699 69.8832 96.0503 69.652C96.7339 69.7209 97.4176 69.7898 98.1012 69.8635C98.3323 70.1439 98.5586 70.4291 98.7897 70.7095C98.7602 70.975 98.7307 71.2406 98.7012 71.5062C98.352 71.4669 98.0077 71.4324 97.6585 71.3931C97.6733 71.2652 97.6831 71.1374 97.6979 71.0095C97.6487 70.9505 97.5995 70.8865 97.5503 70.8275C97.1618 70.7882 96.7683 70.7439 96.3798 70.7045C96.3208 70.7537 96.2568 70.8029 96.1978 70.8521C96.1683 71.1275 96.1437 71.4079 96.1142 71.6833C96.129 71.7029 96.1486 71.7226 96.1634 71.7423C96.7241 71.8013 97.2848 71.8554 97.8504 71.9193C98.0913 72.1702 98.3323 72.421 98.5733 72.6718C98.5094 73.2571 98.4455 73.8424 98.3815 74.4276C98.1012 74.6539 97.8208 74.8801 97.5405 75.1113C96.8618 75.0473 96.1929 74.9785 95.524 74.9096Z" fill="white"/>
</g>
</g>
<g id="Group_7">
<g id="Group_8">
<path id="Vector_27" d="M25.3654 44.4657C26.595 44.269 27.2048 44.1559 28.4344 43.9297C28.159 48.5626 27.313 53.2153 26.5507 57.7843C25.3261 58.9795 24.6867 59.6041 23.4276 60.7599C20.516 61.5173 19.0848 61.8615 16.4831 62.1468C15.7208 61.3796 15.3814 60.9172 14.7076 59.9877C15.9814 55.158 17.3487 50.1365 17.8504 45.1543C19.075 45.1543 19.6898 45.1248 20.9193 45.0215C20.5505 49.566 19.2668 54.1202 18.2094 58.5368C18.3766 58.6942 18.4602 58.7729 18.6324 58.9303C20.157 58.6991 20.9489 58.527 22.5522 58.1434C22.8178 57.8974 22.9506 57.7794 23.2162 57.5384C24.0867 52.9841 24.7851 48.9118 25.3654 44.4657Z" fill="#F1F2F2"/>
<path id="Vector_28" d="M33.0133 58.1139C31.9755 57.5483 31.4689 57.2532 30.4804 56.6777C31.0361 51.5333 31.3903 48.1692 31.7345 43.3149C32.9641 43.0887 33.5739 42.9755 34.8035 42.7788C34.6264 47.1659 34.4199 50.0627 34.1691 54.5481C34.3855 54.6711 34.4937 54.735 34.7101 54.8629C36.8298 54.3563 37.8725 54.1399 39.8349 53.9186C39.825 55.0449 39.8201 55.6154 39.8103 56.7368C37.2626 57.0368 35.8609 57.3712 33.0133 58.1139Z" fill="#F1F2F2"/>
<path id="Vector_29" d="M51.3583 41.8542C51.3583 42.9755 51.3583 43.5411 51.3583 44.6625C49.7992 44.7313 49.0221 44.7608 47.468 44.81C47.468 49.4873 47.468 51.8234 47.468 56.5007C46.2433 56.54 45.6286 56.5548 44.399 56.5744C44.399 51.8972 44.399 49.561 44.399 44.8838C42.8399 44.9084 42.0678 44.8641 40.5038 44.9526C40.5087 43.8215 40.5038 43.246 40.5087 42.1345C44.8515 41.9181 47.0204 42.046 51.3583 41.8542Z" fill="#F1F2F2"/>
<path id="Vector_30" d="M53.6994 56.2449C53.6994 51.4103 53.6994 46.5806 53.6994 41.746C54.924 41.6869 55.5388 41.6574 56.7683 41.6033C56.7683 46.438 56.7683 51.2677 56.7683 56.1023C55.5388 56.1564 54.9289 56.1859 53.6994 56.2449Z" fill="#F1F2F2"/>
<path id="Vector_31" d="M71.8378 44.2198C71.0214 44.1953 70.6132 44.1854 69.7918 44.1657C69.5951 44.3428 69.4967 44.4313 69.2951 44.6084C69.2951 49.1036 69.2951 51.3513 69.2951 55.8465C68.0705 55.8269 67.4557 55.822 66.2261 55.8269C66.2261 51.3316 66.2261 49.084 66.2261 44.5887C66.0294 44.4067 65.931 44.3182 65.7294 44.1362C64.913 44.1411 64.5047 44.151 63.6834 44.1657C63.4867 44.3526 63.3883 44.4461 63.1867 44.6281C63.1867 49.1233 63.1867 51.3709 63.1867 55.8662C61.962 55.8957 61.3472 55.9154 60.1177 55.9597C60.1177 51.007 60.1177 48.5282 60.1177 43.5756C61.0275 42.6952 61.4849 42.2575 62.3948 41.3869C64.2293 41.3378 65.1441 41.3181 66.9786 41.323C67.2835 41.6033 67.436 41.7411 67.736 42.0214C68.041 41.746 68.1934 41.6083 68.4934 41.3328C70.3279 41.3574 71.2427 41.382 73.0772 41.4509C73.9871 42.3312 74.4445 42.769 75.3544 43.6542C75.3544 48.6069 75.3544 51.0857 75.3544 56.0384C74.1297 55.9843 73.5149 55.9597 72.2854 55.9203C72.2854 51.4251 72.2854 49.1774 72.2854 44.6822C72.1182 44.5002 72.0247 44.4067 71.8378 44.2198Z" fill="#F1F2F2"/>
<path id="Vector_32" d="M81.8022 56.3335C80.5628 56.2794 79.9431 56.2499 78.7037 56.1908C78.7037 51.2382 78.7037 48.7594 78.7037 43.8067C79.6283 43.005 80.0906 42.6018 81.0103 41.8001C83.4252 41.9083 84.6301 41.9673 87.045 42.0312C87.9549 42.9018 88.4123 43.3346 89.3221 44.1903C89.3221 49.143 89.3221 51.6218 89.3221 56.5745C88.0975 56.5597 87.4827 56.5449 86.2532 56.5056C86.2532 54.5826 86.2532 53.6235 86.2532 51.7054C84.458 51.6513 83.5629 51.612 81.7677 51.5333C81.7825 53.4514 81.7874 54.4154 81.8022 56.3335ZM81.7677 45.0953C81.7677 46.5462 81.7677 47.2741 81.7677 48.725C83.5629 48.8036 84.458 48.843 86.2532 48.8971C86.2532 47.4462 86.2532 46.7183 86.2532 45.2674C86.0564 45.0805 85.9581 44.9871 85.7613 44.8002C84.3744 44.7559 83.6809 44.7264 82.2891 44.6674C82.0825 44.8395 81.9792 44.9232 81.7677 45.0953Z" fill="#F1F2F2"/>
<path id="Vector_33" d="M102.714 43.4821C102.818 44.6084 102.877 45.0363 103 46.2215C101.382 45.9363 100.57 45.7937 98.9619 45.5527C99.2226 50.3922 99.3996 52.8956 99.7685 57.686C98.2733 57.3712 97.5356 57.2286 96.1241 57.0122C95.9519 52.2267 95.9126 49.9151 95.8044 45.1445C94.2109 44.9772 93.419 44.9182 91.86 44.9035C91.86 43.7772 91.86 43.2214 91.86 42.1001C96.1978 42.1788 98.3717 42.6706 102.714 43.4821Z" fill="#F1F2F2"/>
<path id="Vector_34" d="M110.421 60.2729C109.108 59.1073 108.508 58.6204 107.293 57.5925C106.836 54.0415 105.941 49.9447 105.365 45.9166C106.197 45.2527 106.595 45.0018 107.387 44.3034C109.807 44.7116 111.012 44.8985 113.431 45.051C114.513 45.9609 115.064 46.2658 116.171 47.0626C116.363 47.8446 116.392 48.4151 116.668 49.3594C115.448 49.3643 114.823 49.3348 113.569 49.2364C113.456 48.8282 113.431 48.6364 113.353 48.2085C113.107 47.9724 112.989 47.8593 112.748 47.6429C111.321 47.52 110.603 47.4314 109.162 47.2199C108.995 47.3872 108.907 47.4757 108.734 47.6626C108.902 48.7298 109.034 49.1922 109.408 50.3971C111.041 50.6824 111.848 50.8152 113.431 50.9824C113.992 52.5612 114.213 53.2694 114.425 54.6465C112.792 54.4301 111.946 54.2727 110.23 53.9087C110.416 55.3006 110.613 56.5793 110.825 57.5778C111.09 57.7892 111.223 57.8925 111.484 58.0991C113.131 58.4925 113.938 58.6647 115.487 58.9155C115.674 58.7975 115.763 58.7335 115.94 58.6057C115.861 58.3007 115.792 58.0499 115.684 57.5384C117.017 57.7105 117.661 57.7646 118.886 57.7597C119.151 58.9598 119.24 59.1762 119.373 59.9287C118.605 60.6812 118.187 61.0008 117.45 61.8123C114.838 61.3697 113.382 61.0058 110.421 60.2729Z" fill="#F1F2F2"/>
</g>
</g>
</g>
</g>
<defs>
<clipPath id="clip0_177_1280">
<rect width="137.671" height="120" fill="white" transform="translate(0.164398)"/>
</clipPath>
</defs>
</svg>
