<svg width="20" height="21" viewBox="0 0 20 21" fill="none" xmlns="http://www.w3.org/2000/svg">
<g id="Icons">
<g id="Group">
<path id="Vector" d="M13.8756 18.8332H6.86758C4.9189 18.8332 3.33333 17.2477 3.33333 15.299V9.85237C3.33333 7.90369 4.9189 6.31812 6.86758 6.31812H13.8756C15.8243 6.31812 17.4098 7.90369 17.4098 9.85237V15.299C17.4098 17.2477 15.8243 18.8332 13.8756 18.8332ZM6.86758 7.67372C5.66932 7.67372 4.68893 8.65411 4.68893 9.85237V15.299C4.68893 16.4972 5.66932 17.4776 6.86758 17.4776H13.8756C15.0738 17.4776 16.0542 16.4972 16.0542 15.299V9.85237C16.0542 8.65411 15.0738 7.67372 13.8756 7.67372H6.86758Z" fill="#289FC9"/>
<path id="Vector_2" d="M10.426 14.6213C11.5156 14.6213 12.3989 13.738 12.3989 12.6484C12.3989 11.5588 11.5156 10.6755 10.426 10.6755C9.33642 10.6755 8.45312 11.5588 8.45312 12.6484C8.45312 13.738 9.33642 14.6213 10.426 14.6213Z" fill="#289FC9"/>
<path id="Vector_3" d="M14.9408 6.80231H13.5972C13.5972 4.98677 12.1206 3.52223 10.3172 3.52223C8.51374 3.52223 7.0371 4.99887 7.0371 6.80231H5.66939C5.66939 4.24845 7.75121 2.16663 10.3051 2.16663C12.8589 2.16663 14.9408 4.24845 14.9408 6.80231Z" fill="#289FC9"/>
</g>
</g>
</svg>
