<svg width="16" height="16" viewBox="0 0 16 16" fill="none" xmlns="http://www.w3.org/2000/svg">
<g id="a" clip-path="url(#clip0_23_2655)">
<path id="Vector" d="M16 7.45415V8.50827C16 8.50827 16 8.58356 16 8.62121C15.9624 9.37415 15.7741 10.0894 15.5106 10.7671C14.8329 12.5742 13.6282 13.9671 11.9718 14.9083C11.1059 15.3977 10.2024 15.7365 9.18589 15.8871C8.96 15.8871 8.73412 15.9624 8.50824 15.9624H7.45412C7.45412 15.9624 7.37883 15.9624 7.30353 15.9624C6.96471 15.9624 6.62589 15.8871 6.32471 15.8118C5.00706 15.5106 3.80235 14.9459 2.74824 14.0424C1.20471 12.6871 0.26353 10.9177 0.0376479 8.80945C-0.0752933 7.98121 8.73581e-07 7.11533 0.188236 6.2871C0.602354 4.48004 1.50588 2.97415 2.93647 1.8071C4.25412 0.752978 5.72236 0.150625 7.41647 3.7048e-05C8.32 -0.0752571 9.18589 3.7035e-05 10.0518 0.225919C12.0471 0.790625 13.6282 1.92004 14.7577 3.68945C15.36 4.63062 15.7365 5.68474 15.9247 6.77651C15.9247 7.00239 16 7.22827 16 7.45415ZM7.98118 13.7789C11.1812 13.7789 13.7788 11.1812 13.7788 7.98121C13.7788 4.78121 11.1812 2.18357 8.01883 2.18357C4.81883 2.18357 2.22118 4.74357 2.22118 7.98121C2.22118 11.1812 4.81882 13.7789 7.98118 13.7789Z" fill="#289FC9"/>
<path id="Vector_2" d="M11.5953 11.6706C10.9553 11.6706 10.3529 11.6706 9.75059 11.6706C9.67529 11.6706 9.63765 11.6329 9.6 11.5576C9.14824 10.9553 8.73412 10.3529 8.28235 9.75057C8.20706 9.63763 8.13176 9.59998 7.98118 9.59998C7.64235 9.59998 7.34118 9.59998 7.00235 9.59998C6.81412 9.59998 6.81412 9.59998 6.81412 9.82586C6.81412 10.3906 6.81412 10.9553 6.81412 11.4823C6.81412 11.5953 6.81412 11.6329 6.66353 11.6329C6.24941 11.6329 5.83529 11.6329 5.42118 11.6329C5.30824 11.6329 5.27059 11.6329 5.27059 11.4823C5.27059 9.26116 5.27059 7.07763 5.27059 4.85645C5.27059 4.70587 5.27059 4.55528 5.27059 4.40469C5.27059 4.32939 5.27059 4.29175 5.38353 4.29175C6.36235 4.29175 7.34118 4.29175 8.32 4.29175C9.14824 4.29175 9.86353 4.59292 10.4282 5.27057C10.7294 5.64704 10.9176 6.13645 10.9553 6.62587C10.9929 7.26587 10.9176 7.86822 10.5412 8.39528C10.3906 8.62116 10.2024 8.84704 9.93883 8.99763C9.82588 9.07292 9.82588 9.11057 9.90118 9.22351C10.4659 9.97645 10.9929 10.7294 11.5576 11.4823L11.6329 11.5953L11.5953 11.6706ZM6.81412 7.00234C6.81412 7.30351 6.81412 7.64234 6.81412 7.94351C6.81412 8.01881 6.81412 8.0941 6.92706 8.0941C7.41647 8.0941 7.90588 8.13175 8.39529 8.0941C9.22353 7.98116 9.44941 7.41645 9.33647 6.73881C9.26118 6.24939 8.88471 6.06116 8.43294 6.02351C7.94353 5.94822 7.45412 6.02351 6.92706 6.02351C6.81412 6.02351 6.81412 6.09881 6.81412 6.1741C6.81412 6.47528 6.81412 6.8141 6.81412 7.11528V7.00234Z" fill="#289FC9"/>
</g>
<defs>
<clipPath id="clip0_23_2655">
<rect width="16" height="16" fill="white"/>
</clipPath>
</defs>
</svg>
