<svg width="24" height="24" viewBox="0 0 24 24" fill="none" xmlns="http://www.w3.org/2000/svg">
<g id="Icons">
<path id="Vector" fill-rule="evenodd" clip-rule="evenodd" d="M12 21.5C17.2467 21.5 21.5 17.2467 21.5 12C21.5 6.75329 17.2467 2.5 12 2.5C6.75329 2.5 2.5 6.75329 2.5 12C2.5 17.2467 6.75329 21.5 12 21.5ZM12 23C18.0751 23 23 18.0751 23 12C23 5.92487 18.0751 1 12 1C5.92487 1 1 5.92487 1 12C1 18.0751 5.92487 23 12 23ZM7.1211 5.41759C8.23596 4.58761 9.53632 4.05556 10.8928 3.8556V5.46943C9.92947 5.6437 9.03736 6.02266 8.26315 6.55964L7.1211 5.41759ZM6.55633 8.26694L5.41555 7.12616C5.23126 7.37443 5.05886 7.63548 4.89962 7.90896C4.3468 8.85843 4.00264 9.87195 3.85313 10.8964H5.46697C5.64101 9.93316 6.01967 9.04114 6.55633 8.26694ZM5.46716 13.3105H3.85511C4.05451 14.6667 4.58585 15.9669 5.41498 17.0818L6.55699 15.9398C6.02018 15.1657 5.64135 14.2737 5.46716 13.3105ZM8.2641 17.6468L7.12267 18.7883C7.37197 18.9735 7.63417 19.1468 7.90891 19.3067C8.8573 19.8589 9.86959 20.2029 10.8928 20.3527V18.7364C9.92986 18.5622 9.03808 18.1835 8.2641 17.6468ZM13.3069 18.7367V20.3518C14.6642 20.1528 15.9654 19.6214 17.0812 18.7918L15.9366 17.6473C15.1624 18.184 14.2702 18.5627 13.3069 18.7367ZM17.6439 15.9404L18.7878 17.0843C18.9732 16.8348 19.1466 16.5724 19.3067 16.2974C19.8594 15.3481 20.2036 14.3348 20.3531 13.3105H18.7342C18.56 14.2739 18.181 15.1662 17.6439 15.9404ZM18.7344 10.8964H20.3513C20.1518 9.53884 19.6197 8.23742 18.7892 7.12172L17.6446 8.26632C18.1815 9.04067 18.5603 9.93291 18.7344 10.8964ZM15.9376 6.55921L17.0808 5.41602C16.8323 5.23156 16.5711 5.05902 16.2974 4.89967C15.347 4.34629 14.3324 4.002 13.3069 3.85272V5.46914C14.2706 5.64323 15.1631 6.02215 15.9376 6.55921ZM11.5742 7.57105C11.5742 7.28328 11.7626 7.05 11.9951 7.05C12.2275 7.05 12.416 7.28328 12.416 7.57105V8.20439C12.6895 8.22294 12.9678 8.2939 13.2509 8.41726C13.5423 8.54422 13.8021 8.72417 14.0302 8.95709C14.096 9.02418 14.1488 9.10353 14.1716 9.19463C14.2131 9.36094 14.2398 9.65391 14.0227 9.90864C13.9724 9.96766 13.9193 10.0154 13.8654 10.0538C13.5874 10.2525 13.278 10.0585 12.9769 9.86964C12.9158 9.83135 12.8551 9.79326 12.7951 9.75871C12.6058 9.64981 12.4232 9.59536 12.2472 9.59536C12.1566 9.59536 12.0646 9.60526 11.9713 9.62506C11.878 9.64486 11.794 9.68281 11.7194 9.73891C11.6448 9.79501 11.5821 9.86761 11.5315 9.95671C11.4808 10.0458 11.4555 10.1597 11.4555 10.2983C11.4555 10.4171 11.4755 10.5161 11.5155 10.5953C11.5554 10.6745 11.6141 10.7438 11.6914 10.8032C11.7687 10.8626 11.8607 10.917 11.9673 10.9665C12.0739 11.016 12.1939 11.0671 12.3272 11.1199C12.5191 11.1991 12.7191 11.2866 12.927 11.3823C13.1349 11.478 13.3242 11.605 13.4948 11.7634C13.6654 11.9218 13.8067 12.1182 13.9187 12.3525C14.0307 12.5868 14.0866 12.8788 14.0866 13.2286C14.0866 13.6312 14.0267 13.9794 13.9067 14.2731C13.7867 14.5668 13.6255 14.8093 13.4229 15.0007C13.2203 15.1921 12.9883 15.334 12.7271 15.4264C12.6246 15.4627 12.5209 15.4918 12.416 15.5138V16.4289C12.416 16.7167 12.2275 16.95 11.9951 16.95C11.7626 16.95 11.5742 16.7167 11.5742 16.4289V15.5435C11.2906 15.5077 11.0137 15.4274 10.7437 15.3027C10.5916 15.2324 10.4498 15.1501 10.3184 15.0559C9.95363 14.7944 9.86171 14.2744 10.1248 13.9107C10.3403 13.613 10.8011 13.7032 11.1211 13.884C11.1621 13.9071 11.2031 13.9309 11.2435 13.9563C11.4701 14.0982 11.6954 14.1691 11.9193 14.1691C12.0206 14.1691 12.1193 14.1559 12.2152 14.1295C12.3112 14.1031 12.3952 14.0602 12.4672 14.0008C12.5391 13.9414 12.5965 13.8622 12.6391 13.7632C12.6818 13.6642 12.7031 13.5454 12.7031 13.4068C12.7031 13.2748 12.6764 13.1626 12.6231 13.0702C12.5698 12.9778 12.4938 12.8937 12.3952 12.8178C12.2965 12.7419 12.1739 12.6726 12.0273 12.6099C11.8807 12.5472 11.7141 12.4795 11.5275 12.4069C11.3462 12.3343 11.1689 12.2485 10.9956 12.1495C10.8223 12.0505 10.6677 11.9235 10.5318 11.7684C10.3958 11.6133 10.2865 11.4252 10.2039 11.2041C10.1212 10.983 10.0799 10.7141 10.0799 10.3973C10.0799 10.0079 10.1439 9.67456 10.2719 9.39736C10.3998 9.12016 10.5678 8.89246 10.7757 8.71426C10.9836 8.53606 11.2182 8.40571 11.4795 8.32321C11.511 8.31326 11.5426 8.30391 11.5742 8.29515V7.57105Z" fill="white"/>
</g>
</svg>
