<svg width="24" height="24" viewBox="0 0 24 24" fill="none" xmlns="http://www.w3.org/2000/svg">
<path d="M6.98183 21.2047C6.59322 21.2047 6.20733 21.083 5.87752 20.8432C5.2936 20.4192 5.00667 19.7139 5.12869 19.0025L5.88054 14.6193C5.905 14.4769 5.85779 14.3317 5.75439 14.2311L2.56972 11.1266C2.05295 10.6231 1.87053 9.8837 2.09353 9.19749C2.31652 8.51109 2.89863 8.0204 3.61272 7.9165L8.01375 7.27701C8.15681 7.25627 8.28014 7.16667 8.34397 7.0374L10.3124 3.04904C10.6317 2.4019 11.2784 2 12 2C12.7216 2 13.3683 2.4019 13.6876 3.04904L15.6559 7.0372C15.7199 7.16667 15.8432 7.25627 15.9859 7.27701L20.3873 7.9165C21.1014 8.0204 21.6835 8.51109 21.9065 9.19749C22.1295 9.8837 21.947 10.6231 21.4304 11.1266L18.2456 14.2309C18.1422 14.3317 18.095 14.4769 18.1195 14.6193L18.8713 19.0025C18.9933 19.7139 18.7064 20.4192 18.1225 20.8432C17.539 21.2675 16.7797 21.3225 16.1406 20.9864L12.2042 18.9169C12.0764 18.8501 11.9239 18.8499 11.7957 18.9171L7.85932 20.9864C7.58155 21.1326 7.28093 21.2047 6.98183 21.2047ZM12 3.44328C11.918 3.44328 11.7156 3.46704 11.6067 3.68772L9.63835 7.67588C9.36421 8.23161 8.83436 8.6166 8.22104 8.70539L3.82031 9.34488C3.57668 9.38032 3.49151 9.56536 3.46614 9.64349C3.44077 9.72141 3.4009 9.92135 3.57718 10.0933L6.76175 13.1975C7.20543 13.6298 7.40779 14.2526 7.30308 14.8633L6.55124 19.2465C6.50956 19.4892 6.65946 19.6275 6.72581 19.6756C6.79195 19.7235 6.96995 19.8234 7.18771 19.709L11.1243 17.6395C11.6727 17.3512 12.3274 17.3514 12.8756 17.6393L16.8123 19.709C17.0301 19.8234 17.2079 19.7235 17.2742 19.6756C17.3405 19.6275 17.4904 19.4892 17.4488 19.2465L16.6969 14.8633C16.5922 14.2526 16.7946 13.6298 17.2382 13.1973L20.4229 10.0933C20.5991 9.92135 20.5592 9.72141 20.5339 9.64349C20.5085 9.56536 20.4233 9.38032 20.1797 9.34488L15.7787 8.70539C15.1656 8.6166 14.6358 8.23161 14.3615 7.67568L12.3933 3.68772C12.2844 3.46704 12.0819 3.44328 12 3.44328Z" fill="white"/>
</svg>
