<svg width="24" height="24" viewBox="0 0 24 24" fill="none" xmlns="http://www.w3.org/2000/svg">
<g id="Icons">
<g id="Group">
<path id="Vector" d="M16.6 20.4C16.9 20.4 17.2 20.1 17.2 19.8V13.6C17.2 12.3 16.6 11.2 15.5 10.5C16 9.80001 16.3 8.90001 16.3 8.00001C16.3 5.60001 14.3 3.60001 11.9 3.60001C9.50001 3.60001 7.50001 5.60001 7.50001 8.00001C7.50001 9.00001 7.80001 9.90001 8.30001 10.6C7.20001 11.3 6.60001 12.4 6.60001 13.7V19.9C6.60001 20.2 6.90001 20.5 7.20001 20.5C7.50001 20.5 7.80001 20.2 7.80001 19.9V13.7C7.80001 12.8 8.30001 12 9.10001 11.5C9.80001 12.1 10.7 12.4 11.7 12.4C12.7 12.4 13.6 12.1 14.4 11.5C15.3 12 15.8 12.8 15.8 13.7V19.9C16 20.1 16.3 20.4 16.6 20.4ZM8.80001 8.00001C8.80001 6.30001 10.2 4.90001 11.9 4.90001C13.6 4.90001 15 6.30001 15 8.00001C15 9.70001 13.6 11.1 11.9 11.1C10.2 11.1 8.80001 9.70001 8.80001 8.00001Z" fill="white"/>
<path id="Vector_2" d="M1.6 16.8C1.9 16.8 2.2 16.5 2.2 16.2V12.6C2.2 12.2 2.4 11.8 2.7 11.6C3.2 11.9 3.7 12.1 4.3 12.1C5.9 12.1 7.2 10.8 7.2 9.2C7.2 7.6 5.9 6.3 4.3 6.3C2.7 6.3 1.4 7.6 1.4 9.2C1.4 9.7 1.6 10.2 1.8 10.7C1.3 11.2 1 11.8 1 12.6V16.2C1 16.6 1.3 16.8 1.6 16.8ZM4.4 7.6C5.3 7.6 6 8.4 6 9.3C6 10.2 5.3 10.9 4.4 10.9C3.5 10.9 2.8 10.2 2.8 9.3C2.7 8.4 3.5 7.6 4.4 7.6Z" fill="white"/>
<path id="Vector_3" d="M19.6 6.40001C18 6.40001 16.7 7.70001 16.7 9.30001C16.7 10.9 18 12.2 19.6 12.2C20.2 12.2 20.7 12 21.2 11.7C21.6 11.9 21.8 12.3 21.8 12.7V16.3C21.8 16.6 22.1 16.9 22.4 16.9C22.7 16.9 23 16.6 23 16.3V12.7C23 11.9 22.7 11.3 22.1 10.8C22.4 10.4 22.5 9.90001 22.5 9.40001C22.5 7.70001 21.2 6.40001 19.6 6.40001ZM18 9.30001C18 8.40001 18.7 7.70001 19.6 7.70001C20.5 7.70001 21.2 8.40001 21.2 9.30001C21.2 10.2 20.5 10.9 19.6 10.9C18.7 10.9 18 10.1 18 9.30001Z" fill="white"/>
</g>
</g>
</svg>
