<svg width="19" height="16" viewBox="0 0 19 16" fill="none" xmlns="http://www.w3.org/2000/svg">
<g id="Group">
<path id="Vector" d="M17.1502 2.68619C16.7564 2.78891 16.4482 2.77179 16.4482 2.77179V2.70331C16.8249 2.41226 17.7665 1.50487 17.8864 1.07685C17.9377 0.888524 17.8864 0.837162 17.8864 0.820042L16.7051 1.33366L15.7121 1.7788C15.0272 1.05973 13.9829 0.580353 12.8187 0.580353C10.7471 0.580353 9.06925 2.05273 9.06925 3.85039C9.06925 4.17568 9.12062 4.79203 9.22334 5.08308C9.22334 4.98035 9.22334 5.1858 9.22334 5.08308C7.88793 5.04883 6.17587 4.50098 4.65214 3.73055C1.65603 2.20681 1.4677 1.16245 1.4677 1.16245C0.988323 1.65895 0.748635 3.31965 1.22801 4.62082C1.53618 5.45973 2.58054 6.19592 2.58054 6.19592C2.58054 6.19592 2.11828 6.19592 1.62179 6.04183C1.12529 5.87063 0.936958 5.71654 0.936958 5.71654C0.645908 6.43561 1.22801 7.70253 2.25525 8.62704C2.85447 9.15778 3.93307 9.5002 3.93307 9.5002L2.23813 9.55156C2.13541 11.1951 5.67937 12.171 5.67937 12.171C4.63501 12.9757 3.43657 13.4551 2.15253 13.4551C1.48482 13.4551 0.834238 13.3523 0.217896 13.164C1.92996 14.5679 4.10427 15.5438 6.50116 15.4068C12.8187 15.0815 16.3798 9.63716 16.551 4.31265C16.551 4.31265 16.842 4.17568 17.4755 3.54222C18.1089 2.90876 18.5027 2.17257 18.5027 2.17257C18.5027 2.17257 17.5611 2.58347 17.1673 2.68619H17.1502Z" fill="#289FC9"/>
</g>
</svg>
