<svg width="28" height="28" viewBox="0 0 28 28" fill="none" xmlns="http://www.w3.org/2000/svg">
<g id="Icons">
<g id="Group">
<path id="Vector" d="M14.0003 26.8333C11.4621 26.8333 8.98094 26.0806 6.87051 24.6705C4.76008 23.2603 3.1152 21.2561 2.14388 18.9111C1.17255 16.5661 0.91841 13.9857 1.41359 11.4963C1.90876 9.00688 3.13102 6.7202 4.92579 4.92543C6.72057 3.13065 9.00725 1.9084 11.4967 1.41322C13.9861 0.918044 16.5664 1.17219 18.9114 2.14351C21.2564 3.11484 23.2607 4.75972 24.6709 6.87015C26.081 8.98058 26.8337 11.4618 26.8337 14C26.8297 17.4024 25.4764 20.6643 23.0705 23.0702C20.6647 25.476 17.4027 26.8294 14.0003 26.8333ZM14.0003 3.14099C11.8526 3.14099 9.75316 3.77786 7.96741 4.97106C6.18166 6.16426 4.78984 7.8602 3.96795 9.84441C3.14606 11.8286 2.93101 14.012 3.35001 16.1184C3.769 18.2249 4.80322 20.1598 6.32188 21.6784C7.84053 23.1971 9.77541 24.2313 11.8818 24.6503C13.9883 25.0693 16.1717 24.8542 18.1559 24.0323C20.1401 23.2105 21.836 21.8186 23.0292 20.0329C24.2224 18.2471 24.8593 16.1477 24.8593 14C24.8559 11.121 23.7107 8.36098 21.675 6.32526C19.6393 4.28954 16.8793 3.14439 14.0003 3.14099Z" fill="white"/>
<path id="Vector_2" d="M14.0005 14C13.2195 14 12.4561 13.7684 11.8067 13.3345C11.1573 12.9006 10.6512 12.2839 10.3523 11.5624C10.0535 10.8408 9.97527 10.0469 10.1276 9.2809C10.28 8.51493 10.6561 7.81133 11.2083 7.25909C11.7606 6.70685 12.4641 6.33078 13.2301 6.17841C13.9961 6.02605 14.7901 6.10425 15.5116 6.40312C16.2331 6.70199 16.8498 7.2081 17.2837 7.85747C17.7176 8.50683 17.9492 9.27028 17.9492 10.0513C17.9492 11.0985 17.5332 12.1029 16.7926 12.8434C16.0521 13.584 15.0477 14 14.0005 14ZM14.0005 8.0769C13.61 8.0769 13.2283 8.19269 12.9036 8.40964C12.5789 8.62658 12.3258 8.93494 12.1764 9.2957C12.027 9.65647 11.9879 10.0534 12.0641 10.4364C12.1402 10.8194 12.3283 11.1712 12.6044 11.4473C12.8805 11.7235 13.2323 11.9115 13.6153 11.9877C13.9983 12.0639 14.3953 12.0248 14.756 11.8753C15.1168 11.7259 15.4252 11.4728 15.6421 11.1482C15.859 10.8235 15.9748 10.4417 15.9748 10.0513C15.9748 9.52763 15.7668 9.02544 15.3966 8.65518C15.0263 8.28491 14.5241 8.0769 14.0005 8.0769Z" fill="white"/>
<path id="Vector_3" d="M20.9102 20.9103C20.6484 20.9103 20.3973 20.8063 20.2122 20.6211C20.0271 20.436 19.923 20.1849 19.923 19.9231C19.923 19.1376 19.611 18.3844 19.0556 17.829C18.5002 17.2736 17.747 16.9615 16.9615 16.9615H11.0384C10.253 16.9615 9.49971 17.2736 8.94431 17.829C8.38892 18.3844 8.0769 19.1376 8.0769 19.9231C8.0769 20.1849 7.97289 20.436 7.78776 20.6211C7.60263 20.8063 7.35153 20.9103 7.08972 20.9103C6.8279 20.9103 6.57681 20.8063 6.39168 20.6211C6.20655 20.436 6.10254 20.1849 6.10254 19.9231C6.10411 18.6145 6.62464 17.3599 7.54996 16.4346C8.47528 15.5093 9.72984 14.9888 11.0384 14.9872H16.9615C18.2701 14.9888 19.5247 15.5093 20.45 16.4346C21.3753 17.3599 21.8958 18.6145 21.8974 19.9231C21.8974 20.1849 21.7934 20.436 21.6083 20.6211C21.4231 20.8063 21.172 20.9103 20.9102 20.9103Z" fill="white"/>
</g>
</g>
</svg>
