<svg width="20" height="20" viewBox="0 0 20 20" fill="none" xmlns="http://www.w3.org/2000/svg">
<path d="M7.561 11.161L2.8 15.931V14.5C2.8 14.2613 2.70518 14.0324 2.5364 13.8636C2.36761 13.6948 2.13869 13.6 1.9 13.6C1.66131 13.6 1.43239 13.6948 1.2636 13.8636C1.09482 14.0324 1 14.2613 1 14.5V18.1C1.00142 18.2176 1.02588 18.3338 1.072 18.442C1.16333 18.6619 1.33809 18.8367 1.558 18.928C1.6662 18.9741 1.78239 18.9986 1.9 19H5.5C5.73869 19 5.96761 18.9052 6.1364 18.7364C6.30518 18.5676 6.4 18.3387 6.4 18.1C6.4 17.8613 6.30518 17.6324 6.1364 17.4636C5.96761 17.2948 5.73869 17.2 5.5 17.2H4.069L8.839 12.439C9.00847 12.2695 9.10368 12.0397 9.10368 11.8C9.10368 11.5603 9.00847 11.3305 8.839 11.161C8.66953 10.9915 8.43967 10.8963 8.2 10.8963C7.96033 10.8963 7.73047 10.9915 7.561 11.161ZM4.069 2.8H5.5C5.73869 2.8 5.96761 2.70518 6.1364 2.5364C6.30518 2.36761 6.4 2.13869 6.4 1.9C6.4 1.66131 6.30518 1.43239 6.1364 1.2636C5.96761 1.09482 5.73869 1 5.5 1H1.9C1.78239 1.00142 1.6662 1.02588 1.558 1.072C1.33809 1.16333 1.16333 1.33809 1.072 1.558C1.02588 1.6662 1.00142 1.78239 1 1.9V5.5C1 5.73869 1.09482 5.96761 1.2636 6.1364C1.43239 6.30518 1.66131 6.4 1.9 6.4C2.13869 6.4 2.36761 6.30518 2.5364 6.1364C2.70518 5.96761 2.8 5.73869 2.8 5.5V4.069L7.561 8.839C7.64467 8.92336 7.74421 8.99031 7.85388 9.036C7.96355 9.08169 8.08119 9.10522 8.2 9.10522C8.31881 9.10522 8.43645 9.08169 8.54612 9.036C8.65579 8.99031 8.75533 8.92336 8.839 8.839C8.92336 8.75533 8.99031 8.65579 9.036 8.54612C9.08169 8.43645 9.10522 8.31881 9.10522 8.2C9.10522 8.08119 9.08169 7.96355 9.036 7.85388C8.99031 7.74421 8.92336 7.64467 8.839 7.561L4.069 2.8ZM18.1 13.6C17.8613 13.6 17.6324 13.6948 17.4636 13.8636C17.2948 14.0324 17.2 14.2613 17.2 14.5V15.931L12.439 11.161C12.2695 10.9915 12.0397 10.8963 11.8 10.8963C11.5603 10.8963 11.3305 10.9915 11.161 11.161C10.9915 11.3305 10.8963 11.5603 10.8963 11.8C10.8963 12.0397 10.9915 12.2695 11.161 12.439L15.931 17.2H14.5C14.2613 17.2 14.0324 17.2948 13.8636 17.4636C13.6948 17.6324 13.6 17.8613 13.6 18.1C13.6 18.3387 13.6948 18.5676 13.8636 18.7364C14.0324 18.9052 14.2613 19 14.5 19H18.1C18.2176 18.9986 18.3338 18.9741 18.442 18.928C18.6619 18.8367 18.8367 18.6619 18.928 18.442C18.9741 18.3338 18.9986 18.2176 19 18.1V14.5C19 14.2613 18.9052 14.0324 18.7364 13.8636C18.5676 13.6948 18.3387 13.6 18.1 13.6ZM18.928 1.558C18.8367 1.33809 18.6619 1.16333 18.442 1.072C18.3338 1.02588 18.2176 1.00142 18.1 1H14.5C14.2613 1 14.0324 1.09482 13.8636 1.2636C13.6948 1.43239 13.6 1.66131 13.6 1.9C13.6 2.13869 13.6948 2.36761 13.8636 2.5364C14.0324 2.70518 14.2613 2.8 14.5 2.8H15.931L11.161 7.561C11.0766 7.64467 11.0097 7.74421 10.964 7.85388C10.9183 7.96355 10.8948 8.08119 10.8948 8.2C10.8948 8.31881 10.9183 8.43645 10.964 8.54612C11.0097 8.65579 11.0766 8.75533 11.161 8.839C11.2447 8.92336 11.3442 8.99031 11.4539 9.036C11.5636 9.08169 11.6812 9.10522 11.8 9.10522C11.9188 9.10522 12.0364 9.08169 12.1461 9.036C12.2558 8.99031 12.3553 8.92336 12.439 8.839L17.2 4.069V5.5C17.2 5.73869 17.2948 5.96761 17.4636 6.1364C17.6324 6.30518 17.8613 6.4 18.1 6.4C18.3387 6.4 18.5676 6.30518 18.7364 6.1364C18.9052 5.96761 19 5.73869 19 5.5V1.9C18.9986 1.78239 18.9741 1.6662 18.928 1.558Z" fill="white"/>
</svg>
