<svg width="24" height="24" viewBox="0 0 24 24" fill="none" xmlns="http://www.w3.org/2000/svg">
<g id="Icons">
<path id="Vector" d="M13.7001 9.60013L8.00008 4.60013L3.70008 9.60013L9.40008 14.6001L13.7001 9.60013ZM8.30008 3.80013L14.4001 9.10013C14.7001 9.30013 15.1001 9.30013 15.4001 9.00013L16.2001 8.10013C16.4001 7.80013 16.4001 7.40013 16.1001 7.20013L9.90008 1.90013C9.60008 1.70013 9.20008 1.70013 9.00008 2.00013L8.20008 2.90013C8.00008 3.10013 8.00008 3.60013 8.30008 3.80013ZM1.20008 11.9001L7.30008 17.2001C7.60008 17.4001 8.00008 17.4001 8.20008 17.1001L9.00008 16.2001C9.30008 16.0001 9.30008 15.6001 9.00008 15.3001L2.90008 10.0001C2.60008 9.80013 2.20008 9.80013 2.00008 10.1001L1.20008 11.0001C0.900081 11.2001 1.00008 11.7001 1.20008 11.9001ZM21.4001 17.7001L15.5001 13.3001C14.7001 12.7001 13.9001 12.3001 13.2001 12.1001L11.9001 13.6001C12.2001 14.3001 12.7001 15.0001 13.4001 15.7001L18.5001 20.9001C19.9001 22.2001 21.7001 22.5001 22.6001 21.6001C23.5001 20.7001 22.9001 18.9001 21.4001 17.7001Z" fill="white"/>
</g>
</svg>
