<svg width="24" height="24" viewBox="0 0 24 24" fill="none" xmlns="http://www.w3.org/2000/svg">
<path d="M2.30952 4C1.5863 4 1 4.58627 1 5.30952C1 6.03277 1.5863 6.61905 2.30952 6.61905H21.6905C22.4137 6.61905 23 6.03277 23 5.30952C23 4.58627 22.4137 4 21.6905 4H2.30952ZM2.30952 11.0714C1.5863 11.0714 1 11.6577 1 12.381C1 13.1042 1.5863 13.6905 2.30952 13.6905H21.6905C22.4137 13.6905 23 13.1042 23 12.381C23 11.6577 22.4137 11.0714 21.6905 11.0714H2.30952ZM2.30952 18.1429C1.5863 18.1429 1 18.7291 1 19.4524C1 20.1756 1.5863 20.7619 2.30952 20.7619H21.6905C22.4137 20.7619 23 20.1756 23 19.4524C23 18.7291 22.4137 18.1429 21.6905 18.1429H2.30952Z" fill="white"/>
</svg>
