<svg width="20" height="20" viewBox="0 0 20 20" fill="none" xmlns="http://www.w3.org/2000/svg">
<g id="Icons">
<path id="Vector" d="M16.9168 13.6666C17.1668 13.75 17.4168 13.9166 17.6668 14.0833C18.0002 14.4166 18.1668 14.8333 18.1668 15.3333C18.1668 15.8333 18.0002 16.25 17.6668 16.5833C17.3335 16.9166 16.9168 17.0833 16.4168 17.0833H12.5835C12.5002 17.5833 12.2502 18 11.8335 18.4166C11.4168 18.8333 10.7502 19.1666 10.0002 19.1666C9.25016 19.1666 8.5835 18.8333 8.0835 18.4166C7.75016 18.0833 7.50016 17.5833 7.41683 17.0833H3.5835C3.0835 17.0833 2.66683 16.9166 2.3335 16.5833C2.00016 16.25 1.8335 15.8333 1.8335 15.3333C1.8335 14.8333 2.00016 14.4166 2.3335 14.0833C2.50016 13.9166 2.75016 13.75 3.0835 13.6666L3.91683 8.58331C4.16683 6.83331 4.91683 5.33331 6.00016 4.16665C6.41683 3.74998 6.8335 3.41665 7.3335 3.16665C7.41683 2.58331 7.66683 1.99998 8.0835 1.58331C8.5835 1.16665 9.25016 0.833313 10.0002 0.833313C10.7502 0.833313 11.4168 1.16665 11.9168 1.58331C12.3335 1.99998 12.5835 2.49998 12.6668 3.16665C13.1668 3.41665 13.5835 3.74998 14.0002 4.16665C15.0835 5.24998 15.8335 6.83331 16.0835 8.49998L16.9168 13.6666ZM7.50016 8.41665C7.41683 8.74998 7.16683 8.91665 6.8335 8.91665C6.50016 8.83331 6.3335 8.58331 6.3335 8.24998C6.50016 7.33331 6.91683 6.49998 7.50016 5.91665C8.0835 5.33331 8.8335 4.99998 9.66683 4.99998C10.0002 4.99998 10.2502 5.24998 10.2502 5.58331C10.2502 5.91665 10.0002 6.16665 9.66683 6.16665C9.0835 6.16665 8.66683 6.41665 8.25016 6.74998C7.91683 7.16665 7.66683 7.74998 7.50016 8.41665ZM8.75016 2.66665C9.16683 2.58331 9.5835 2.49998 10.0002 2.49998C10.4168 2.49998 10.8335 2.58331 11.2502 2.66665C11.1668 2.58331 11.1668 2.49998 11.0835 2.41665C10.8335 2.16665 10.4168 1.99998 10.0002 1.99998C9.5835 1.99998 9.25016 2.16665 8.91683 2.41665C8.91683 2.49998 8.8335 2.58331 8.75016 2.66665ZM11.3335 17.0833H8.5835C8.66683 17.25 8.75016 17.4166 8.91683 17.5833C9.16683 17.8333 9.5835 18 10.0002 18C10.4168 18 10.7502 17.8333 11.0835 17.5833C11.1668 17.4166 11.3335 17.25 11.3335 17.0833ZM16.8335 14.9166C16.7502 14.8333 16.5835 14.75 16.4168 14.75C16.1668 14.75 15.9168 14.5833 15.8335 14.25L14.9168 8.74998C14.6668 7.33331 14.0835 5.99998 13.1668 4.99998C12.3335 4.16665 11.2502 3.66665 10.0002 3.66665C8.75016 3.66665 7.66683 4.16665 6.8335 4.99998C5.91683 5.91665 5.25016 7.24998 5.0835 8.74998L4.16683 14.25C4.16683 14.5833 3.91683 14.75 3.5835 14.75C3.41683 14.75 3.25016 14.8333 3.16683 14.9166C3.0835 15 3.00016 15.1666 3.00016 15.3333C3.00016 15.5 3.0835 15.6666 3.16683 15.75C3.25016 15.8333 3.41683 15.9166 3.5835 15.9166H7.3335H12.6668H16.4168C16.5835 15.9166 16.7502 15.8333 16.8335 15.75C16.9168 15.6666 17.0002 15.5 17.0002 15.3333C17.0002 15.1666 16.9168 15 16.8335 14.9166Z" fill="white"/>
</g>
</svg>
