<svg width="16" height="17" viewBox="0 0 16 17" fill="none" xmlns="http://www.w3.org/2000/svg">
<g id="Icons">
<g id="Group">
<path id="Vector" d="M8 3.05856C7.53333 3.05856 7.13333 3.45856 7.13333 3.92522C7.13333 4.39189 7.53333 4.79188 8 4.79188C8.46666 4.79188 8.86666 4.39189 8.86666 3.92522C8.86666 3.45856 8.46666 3.05856 8 3.05856ZM7.66666 5.05856L5.06666 8.65854L2.06666 7.52524C1.93333 7.65857 1.8 7.72521 1.66666 7.79188L3.2 12.2586H12.7333L14.2667 7.79188C14.1333 7.72521 14 7.65857 13.8667 7.52524L10.8667 8.65854L8.26666 5.05856C8.13333 5.05856 8.06666 5.12521 7.93333 5.12521C7.86666 5.05855 7.8 5.05856 7.66666 5.05856ZM1.33333 6.12521C0.933331 6.12521 0.666664 6.45855 0.666664 6.79188C0.666664 7.19188 0.999997 7.45855 1.33333 7.45855C1.66666 7.45855 2 7.12521 2 6.79188C2 6.39188 1.73333 6.12521 1.33333 6.12521ZM14.6667 6.12521C14.2667 6.12521 14 6.45855 14 6.79188C14 7.19188 14.3333 7.45855 14.6667 7.45855C15.0667 7.45855 15.3333 7.12521 15.3333 6.79188C15.3333 6.39188 15 6.12521 14.6667 6.12521ZM3.2 12.5919V13.9252H12.7333V12.5919H3.2Z" fill="#6E6980" fill-opacity="0.4"/>
</g>
</g>
</svg>
