<svg width="16" height="16" viewBox="0 0 16 16" fill="none" xmlns="http://www.w3.org/2000/svg">
<g id="Icons">
<path id="Vector" d="M10.6 8.06667L6.6 12.0667C6.13333 12.5333 5.46667 12.5333 5 12.0667L1 8.06667C0.533335 7.6 0.533335 6.93334 1 6.46667L5 2.46667C5.46667 2 6.13333 2 6.6 2.46667L10.6 6.46667C11.0667 6.93334 11.0667 7.6 10.6 8.06667ZM3.4 7.26667C3.4 6.93334 3.13334 6.73334 2.86667 6.73334C2.53334 6.73334 2.33333 7 2.33333 7.26667C2.33333 7.6 2.6 7.8 2.86667 7.8C3.2 7.8 3.4 7.6 3.4 7.26667ZM6.33333 4.33334C6.33333 4 6.06667 3.8 5.8 3.8C5.53333 3.8 5.26667 4 5.26667 4.33334C5.26667 4.66667 5.53333 4.86667 5.8 4.86667C6.13334 4.86667 6.33333 4.66667 6.33333 4.33334ZM6.33333 7.26667C6.33333 6.93334 6.06667 6.73334 5.8 6.73334C5.46667 6.73334 5.26667 7 5.26667 7.26667C5.26667 7.6 5.53333 7.8 5.8 7.8C6.13334 7.8 6.33333 7.6 6.33333 7.26667ZM6.33333 10.2C6.33333 9.86667 6.06667 9.66667 5.8 9.66667C5.46667 9.66667 5.26667 9.93334 5.26667 10.2C5.26667 10.5333 5.53333 10.7333 5.8 10.7333C6.13334 10.7333 6.33333 10.5333 6.33333 10.2ZM15.3333 7.66667V12.8C15.3333 13.4 14.8667 13.8667 14.2667 13.8667H9.13334C8.53333 13.8667 8.06667 13.4 8.06667 12.8V11.7333L11.2 8.6C11.7333 8.06667 11.8667 7.26667 11.6 6.53334H14.3333C14.8667 6.53334 15.3333 7 15.3333 7.66667ZM9.26667 7.26667C9.26667 6.93334 9 6.73334 8.73334 6.73334C8.4 6.73334 8.2 7 8.2 7.26667C8.2 7.6 8.46667 7.8 8.73334 7.8C9.06667 7.8 9.26667 7.6 9.26667 7.26667ZM12.2 10.2C12.2 9.86667 11.9333 9.66667 11.6667 9.66667C11.3333 9.66667 11.1333 9.93334 11.1333 10.2C11.1333 10.5333 11.4 10.7333 11.6667 10.7333C11.9333 10.7333 12.2 10.5333 12.2 10.2Z" fill="#3FBE94"/>
</g>
</svg>
