<svg width="24" height="24" viewBox="0 0 24 24" fill="none" xmlns="http://www.w3.org/2000/svg">
<g id="Icons">
<path id="Vector" d="M12 2C6.4775 2 2 6.4775 2 12C2 17.5225 6.4775 22 12 22C17.5225 22 22 17.5225 22 12C22 6.4775 17.5225 2 12 2ZM12.8333 16.8808V18.6667H11.1667V16.8858C9.39167 16.6492 8.27417 15.6167 8.21167 14.0867H10.1125C10.2033 14.8483 10.9717 15.3367 12.0783 15.3367C13.1008 15.3367 13.8233 14.8417 13.8233 14.1325C13.8233 13.5333 13.355 13.1883 12.2025 12.9408L10.9783 12.6808C9.26583 12.3225 8.42667 11.4308 8.42667 9.99833C8.42667 8.47333 9.48833 7.40167 11.1667 7.1325V5.33333H12.8333V7.13C14.4633 7.39417 15.5633 8.45 15.6142 9.89417H13.765C13.6742 9.15167 12.9833 8.6575 12.0333 8.6575C11.05 8.6575 10.3992 9.11333 10.3992 9.82917C10.3992 10.4083 10.8483 10.7408 11.9483 10.975L13.0808 11.2158C14.9692 11.6133 15.7825 12.4267 15.7825 13.885C15.7833 15.5367 14.6783 16.6283 12.8333 16.8808Z" fill="#3FBE94"/>
</g>
</svg>
