<svg width="24" height="24" viewBox="0 0 24 24" fill="none" xmlns="http://www.w3.org/2000/svg">
<g id="fa6-regular:chess-king">
<path id="Vector" d="M12.6875 2.9375C12.6875 2.41797 12.2695 2 11.75 2C11.2305 2 10.8125 2.41797 10.8125 2.9375V4.1875H9.5625C9.04297 4.1875 8.625 4.60547 8.625 5.125C8.625 5.64453 9.04297 6.0625 9.5625 6.0625H10.8125V7.625H5.32812C4.04297 7.625 3 8.66797 3 9.95312C3 10.2734 3.06641 10.5898 3.19141 10.8828L5.30859 15.75H7.35156L4.91406 10.1328C4.89062 10.0742 4.875 10.0156 4.875 9.95312C4.875 9.70312 5.07812 9.5 5.32812 9.5H18.1719C18.4219 9.5 18.625 9.70312 18.625 9.95312C18.625 10.0156 18.6133 10.0781 18.5859 10.1328L16.1445 15.75H18.1875L20.3047 10.8828C20.4336 10.5898 20.4961 10.2734 20.4961 9.95312C20.4961 8.66797 19.4531 7.625 18.168 7.625H12.6875V6.0625H13.9375C14.457 6.0625 14.875 5.64453 14.875 5.125C14.875 4.60547 14.457 4.1875 13.9375 4.1875H12.6875V2.9375ZM6.95312 18.875H16.5469L17.1953 20.125H6.30859L6.95703 18.875H6.95312ZM18.0352 17.6758C17.8203 17.2617 17.3906 17 16.9258 17H6.57422C6.10547 17 5.67969 17.2617 5.46484 17.6758L4.42969 19.6758C4.3125 19.9023 4.25 20.1523 4.25 20.4062C4.25 21.2891 4.96094 22 5.84375 22H17.6562C18.5352 22 19.25 21.2891 19.25 20.4062C19.25 20.1523 19.1875 19.9023 19.0703 19.6758L18.0352 17.6758Z" fill="white"/>
</g>
</svg>
