<svg width="24" height="24" viewBox="0 0 24 24" fill="none" xmlns="http://www.w3.org/2000/svg">
<g id="Icons">
<g id="Group">
<g id="Group_2">
<path id="Vector" d="M19.3 2.3H18.5V1.6C18.5 1.2 18.2 1 17.9 1C17.5 1 17.3 1.3 17.3 1.6V2.2H6.8V1.6C6.8 1.3 6.5 1 6.2 1C5.9 1 5.5 1.3 5.5 1.6V2.2H4.7C2.7 2.3 1 4 1 6V19.3C1 21.3 2.7 23 4.7 23H19.3C21.4 23 23 21.3 23 19.3V6C23 4 21.3 2.3 19.3 2.3ZM4.7 3.6H5.5V4.9C5.5 5.3 5.8 5.5 6.1 5.5C6.4 5.5 6.7 5.2 6.7 4.9V3.6H17.1V4.9C17.1 5.3 17.4 5.5 17.7 5.5C18.1 5.5 18.3 5.2 18.3 4.9V3.6H19.1C20.4 3.6 21.5 4.7 21.5 6V7.5H2.3V6C2.3 4.7 3.4 3.6 4.7 3.6ZM19.3 21.7H4.7C3.4 21.7 2.3 20.6 2.3 19.3V8.8H21.7V19.3C21.7 20.6 20.6 21.7 19.3 21.7Z" fill="white"/>
<path id="Vector_2" d="M15.7 13.4L13.6 13.1L12.6 11.2C12.4 10.7 11.7 10.7 11.4 11.2L10.4 13.1L8.29999 13.4C7.79999 13.5 7.59999 14.1 7.89999 14.5L9.49999 16L9.09999 18.1C8.99999 18.6 9.59999 19 9.99999 18.8L11.9 17.8L13.8 18.8C14.3 19 14.8 18.6 14.7 18.1L14.5 16L16.1 14.5C16.4 14.2 16.2 13.5 15.7 13.4ZM13.3 15.4C13.1 15.5 13.1 15.8 13.1 16L13.3 17.2L12.2 16.6C12 16.5 11.8 16.5 11.6 16.6L10.5 17.2L10.7 16C10.7 15.8 10.7 15.6 10.5 15.4L9.59999 14.6L10.8 14.4C11 14.4 11.2 14.2 11.3 14L11.8 12.9L12.3 14C12.4 14.2 12.6 14.3 12.8 14.4L14 14.6L13.3 15.4Z" fill="white"/>
</g>
</g>
</g>
</svg>
