<svg width="22" height="22" viewBox="0 0 22 22" fill="none" xmlns="http://www.w3.org/2000/svg">
<path fill-rule="evenodd" clip-rule="evenodd" d="M10.9002 0.75C5.29441 0.75 0.75 5.29442 0.75 10.9002V11.0998C0.75 16.7056 5.29441 21.25 10.9002 21.25C16.5061 21.25 21.0505 16.7056 21.0505 11.0998V10.9002C21.0505 5.35138 16.5979 0.84246 11.0708 0.7514C11.0473 0.75047 11.0237 0.75 11 0.75L10.9707 0.75024L10.9002 0.75ZM8.74377 2.52095C6.40224 3.12179 4.44381 4.67824 3.30878 6.75H6.59274C7.04924 5.25691 7.76594 3.82409 8.74377 2.52095ZM2.25 10.9002C2.25 9.9758 2.39502 9.0852 2.66354 8.25H6.22492C5.88576 10.0695 5.91639 11.9421 6.31526 13.75H2.66354C2.39502 12.9148 2.25 12.0242 2.25 11.0998V10.9002ZM3.30878 15.25C4.51225 17.4467 6.64141 19.064 9.1714 19.5772C8.07833 18.2625 7.26638 16.7937 6.7366 15.25H3.30878ZM8.33429 15.25C8.80451 16.4513 9.4712 17.5939 10.3338 18.629L10.7561 19.1358C10.8164 19.2081 10.9058 19.25 11 19.25C11.0942 19.25 11.1836 19.2081 11.2439 19.1357L11.6662 18.629C12.5288 17.5939 13.1955 16.4513 13.6657 15.25H8.33429ZM15.2634 15.25C14.7407 16.773 13.9434 18.223 12.8725 19.5242C15.2954 18.9591 17.327 17.3759 18.4917 15.25H15.2634ZM19.1369 13.75H15.6847C16.0836 11.9421 16.1142 10.0695 15.7751 8.25H19.1369C19.4055 9.0852 19.5505 9.9758 19.5505 10.9002V11.0998C19.5505 12.0242 19.4055 12.9148 19.1369 13.75ZM14.144 13.75H7.85604C7.40705 11.9487 7.37242 10.0657 7.75411 8.25H14.2459C14.6276 10.0657 14.5929 11.9487 14.144 13.75ZM15.4073 6.75H18.4917C17.3974 4.75255 15.5377 3.23411 13.3072 2.58928C14.259 3.8741 14.9587 5.28295 15.4073 6.75ZM10.1294 3.17974C9.2626 4.27774 8.60989 5.48602 8.17057 6.75H13.8294C13.3901 5.48602 12.7374 4.27774 11.8706 3.17974L11.2212 2.35717C11.1722 2.2952 11.0998 2.25686 11.0217 2.25084L10.9849 2.25041C10.9043 2.25473 10.8291 2.29346 10.7788 2.35717L10.1294 3.17974Z" fill="white"/>
</svg>
