<svg width="16" height="17" viewBox="0 0 16 17" fill="none" xmlns="http://www.w3.org/2000/svg">
<g id="Icons">
<path id="Vector" d="M9.13333 6.89999L5.33333 3.56666L2.46667 6.89999L6.26667 10.2333L9.13333 6.89999ZM5.53333 3.03333L9.6 6.56666C9.8 6.7 10.0667 6.69999 10.2667 6.49999L10.8 5.89999C10.9333 5.7 10.9333 5.43333 10.7333 5.29999L6.6 1.76666C6.4 1.63333 6.13333 1.63333 6 1.83333L5.46667 2.43333C5.33333 2.56666 5.33333 2.89999 5.53333 3.03333ZM0.8 8.43333L4.86667 11.9667C5.06667 12.1 5.33333 12.1 5.46667 11.9L6 11.3C6.2 11.1667 6.2 10.9 6 10.7L1.93333 7.16666C1.73333 7.03333 1.46667 7.03333 1.33333 7.23333L0.8 7.83333C0.6 7.96666 0.666666 8.29999 0.8 8.43333ZM14.2667 12.3L10.3333 9.36666C9.8 8.96666 9.26667 8.69999 8.8 8.56666L7.93333 9.56666C8.13333 10.0333 8.46667 10.5 8.93333 10.9667L12.3333 14.4333C13.2667 15.3 14.4667 15.5 15.0667 14.9C15.6667 14.3 15.2667 13.1 14.2667 12.3Z" fill="#6E6980" fill-opacity="0.4"/>
</g>
</svg>
