<svg width="16" height="16" viewBox="0 0 16 16" fill="none" xmlns="http://www.w3.org/2000/svg">
<g id="Icons">
<g id="Group">
<path id="Vector" d="M13.0303 8.00001C13.0303 7.81819 13.1515 7.63637 13.3939 7.63637H14.6667C14.4848 4.24243 11.7576 1.51516 8.36364 1.33334V2.66668C8.36364 2.8485 8.24242 3.03031 8 3.03031C7.75757 3.03031 7.63636 2.9091 7.63636 2.66668V1.33334C4.24242 1.51516 1.51515 4.24243 1.33333 7.63637H2.66667C2.84848 7.63637 3.0303 7.75759 3.0303 8.00001C3.0303 8.24243 2.90909 8.36365 2.66667 8.36365H1.33333C1.51515 11.7576 4.24242 14.4849 7.63636 14.6667V13.3333C7.63636 13.1515 7.75757 12.9697 8 12.9697C8.24242 12.9697 8.36364 13.0909 8.36364 13.3333V14.6667C11.7576 14.4849 14.5455 11.7576 14.6667 8.36365H13.3333C13.1515 8.36365 13.0303 8.18183 13.0303 8.00001ZM11.9394 5.33334L8.78788 7.9394C8.78788 7.9394 8.78788 7.9394 8.78788 8.00001C8.78788 8.48486 8.42424 8.8485 7.93939 8.8485C7.45454 8.8485 7.09091 8.48486 7.09091 8.00001C7.09091 7.9394 7.09091 7.8788 7.09091 7.81819L5.63636 6.12122C5.63636 6.06062 5.57576 6.00001 5.57576 5.9394C5.57576 5.75759 5.75758 5.57577 5.93939 5.57577C6 5.57577 6.12121 5.63637 6.18182 5.63637L7.87879 7.15153C7.93939 7.15153 8 7.15153 8.06061 7.15153C8.12121 7.15153 8.24242 7.15153 8.30303 7.21213L11.6364 4.78789C11.697 4.72728 11.7576 4.72728 11.8182 4.72728C12 4.72728 12.1818 4.8485 12.1818 5.09092C12.0606 5.21213 12.0606 5.27274 11.9394 5.33334Z" fill="white"/>
<path id="Vector_2" d="M8.00003 8.36366C8.20086 8.36366 8.36366 8.20085 8.36366 8.00002C8.36366 7.79919 8.20086 7.63638 8.00003 7.63638C7.7992 7.63638 7.63639 7.79919 7.63639 8.00002C7.63639 8.20085 7.7992 8.36366 8.00003 8.36366Z" fill="white"/>
</g>
</g>
</svg>
