<svg width="22" height="22" viewBox="0 0 22 22" fill="none" xmlns="http://www.w3.org/2000/svg">
<g id="Group">
<path id="Vector" d="M15.0319 21.3665H6.69416C2.99611 21.3665 0 18.3533 0 14.6724V7.32762C0 3.64668 3.01323 0.633453 6.69416 0.633453H15.0148C18.7128 0.633453 21.709 3.64668 21.709 7.32762V14.6724C21.709 18.3704 18.6957 21.3665 15.0148 21.3665H15.0319ZM6.69416 2.12295C3.83502 2.12295 1.48949 4.45135 1.48949 7.32762V14.6724C1.48949 17.5486 3.83502 19.877 6.69416 19.877H15.0148C17.8911 19.877 20.2195 17.5315 20.2195 14.6724V7.32762C20.2195 4.45135 17.8739 2.12295 15.0148 2.12295H6.69416Z" fill="#22C55E"/>
<path id="Vector_2" d="M10.8716 16.9666C7.58442 16.9666 4.9136 14.2957 4.9136 11.0086C4.9136 7.72141 7.58442 5.0506 10.8716 5.0506C14.1587 5.0506 16.8296 7.72141 16.8296 11.0086C16.8296 14.2957 14.1587 16.9666 10.8716 16.9666ZM10.8716 6.52297C8.40621 6.52297 6.4031 8.52608 6.4031 10.9915C6.4031 13.4568 8.40621 15.4599 10.8716 15.4599C13.337 15.4599 15.3401 13.4568 15.3401 10.9915C15.3401 8.52608 13.337 6.52297 10.8716 6.52297Z" fill="#22C55E"/>
<path id="Vector_3" d="M17.9767 5.22182C17.9767 5.90665 17.4288 6.45451 16.744 6.45451C16.0592 6.45451 15.5113 5.90665 15.5113 5.22182C15.5113 4.537 16.0592 3.98914 16.744 3.98914C17.4288 3.98914 17.9767 4.537 17.9767 5.22182Z" fill="#22C55E"/>
</g>
</svg>
