<svg width="24" height="24" viewBox="0 0 24 24" fill="none" xmlns="http://www.w3.org/2000/svg">
<g id="Icons">
<path id="Vector" d="M15.9001 12.1L9.9001 18.1C9.2001 18.8 8.2001 18.8 7.5001 18.1L1.5001 12.1C0.800098 11.4 0.800098 10.4 1.5001 9.70005L7.5001 3.70005C8.2001 3.00005 9.2001 3.00005 9.9001 3.70005L15.9001 9.70005C16.6001 10.4 16.6001 11.4 15.9001 12.1ZM5.1001 10.9C5.1001 10.4 4.7001 10.1 4.3001 10.1C3.8001 10.1 3.5001 10.5 3.5001 10.9C3.5001 11.4 3.9001 11.7 4.3001 11.7C4.8001 11.7 5.1001 11.4 5.1001 10.9ZM9.5001 6.50005C9.5001 6.00005 9.1001 5.70005 8.7001 5.70005C8.3001 5.70005 7.9001 6.00005 7.9001 6.50005C7.9001 7.00005 8.3001 7.30005 8.7001 7.30005C9.2001 7.30005 9.5001 7.00005 9.5001 6.50005ZM9.5001 10.9C9.5001 10.4 9.1001 10.1 8.7001 10.1C8.2001 10.1 7.9001 10.5 7.9001 10.9C7.9001 11.4 8.3001 11.7 8.7001 11.7C9.2001 11.7 9.5001 11.4 9.5001 10.9ZM9.5001 15.3C9.5001 14.8 9.1001 14.5 8.7001 14.5C8.2001 14.5 7.9001 14.9 7.9001 15.3C7.9001 15.8 8.3001 16.1 8.7001 16.1C9.2001 16.1 9.5001 15.8 9.5001 15.3ZM23.0001 11.5V19.2001C23.0001 20.1 22.3001 20.8 21.4001 20.8H13.7001C12.8001 20.8 12.1001 20.1 12.1001 19.2001V17.6L16.8001 12.9C17.6001 12.1 17.8001 10.9 17.4001 9.80005H21.5001C22.3001 9.80005 23.0001 10.5 23.0001 11.5ZM13.9001 10.9C13.9001 10.4 13.5001 10.1 13.1001 10.1C12.6001 10.1 12.3001 10.5 12.3001 10.9C12.3001 11.4 12.7001 11.7 13.1001 11.7C13.6001 11.7 13.9001 11.4 13.9001 10.9ZM18.3001 15.3C18.3001 14.8 17.9001 14.5 17.5001 14.5C17.0001 14.5 16.7001 14.9 16.7001 15.3C16.7001 15.8 17.1001 16.1 17.5001 16.1C17.9001 16.1 18.3001 15.8 18.3001 15.3Z" fill="#3FBE94"/>
</g>
</svg>
