<svg width="24" height="24" viewBox="0 0 24 24" fill="none" xmlns="http://www.w3.org/2000/svg">
<path fill-rule="evenodd" clip-rule="evenodd" d="M11.88 0L11.4 0.6C10.8 1.44 9.6 2.52 8.28 3C6.96 3.48 5.4 3.59997 3.84 2.51997L3 2.03994V18.36C3 18.96 3.24 19.44 3.72 19.8C4.08 20.16 4.56 20.3999 5.16 20.6399C6.24 21.1199 7.44 21.36 8.4 21.48C10.08 21.72 10.56 22.44 11.52 23.52L11.88 24L12.24 23.52C13.2 22.44 13.68 21.72 15.36 21.48C16.32 21.36 17.52 21.1199 18.6 20.6399C19.08 20.3999 19.68 20.16 20.04 19.8C20.4 19.44 20.76 18.96 20.76 18.36V2.03994L19.92 2.51997C18.24 3.47997 16.8 3.48 15.48 3C14.16 2.52 13.08 1.44 12.36 0.6L11.88 0ZM11.88 4.43994L12.36 5.75999H13.8L12.72 6.6L13.08 7.91997L11.88 7.2L10.68 7.91997L11.04 6.6L9.96 5.75999H11.4L11.88 4.43994ZM5.64 4.8L6 5.87996H7.08L6.24 6.6L6.6 7.67996L5.64 7.07996L4.68 7.67996L5.04 6.6L4.2 5.87996H5.28L5.64 4.8ZM18.12 4.8L18.48 5.87996H19.56L18.72 6.6L19.08 7.67996L18.12 7.07996L17.16 7.67996L17.52 6.6L16.68 5.87996H17.76L18.12 4.8ZM4.08 9.71997H19.68V18.36C19.68 18.6 19.56 18.72 19.32 18.96C19.08 19.2 18.72 19.44 18.24 19.56C17.28 19.92 16.08 20.16 15.24 20.28C13.56 20.52 12.6 21.36 11.88 22.2C11.04 21.36 10.2 20.52 8.52 20.28C7.68 20.16 6.48 19.92 5.52 19.56C5.04 19.32 4.68 19.2 4.44 18.96C4.2 18.72 4.08 18.6 4.08 18.36V9.71997ZM13.8 10.4399C13.32 10.4399 12.72 10.56 12 10.8L15.48 12.8399C15.36 11.7599 14.88 10.92 14.4 10.56C14.28 10.44 14.04 10.4399 13.8 10.4399ZM11.28 11.16C10.44 11.64 9.6 12.3599 9 13.4399C8.4 14.3999 8.16 15.6 8.28 16.56L12.6 19.08C13.44 18.6 14.28 17.88 14.88 16.8C15.48 15.84 15.72 14.64 15.6 13.68L11.28 11.16ZM12.72 13.32H12.84C12.96 13.44 13.08 13.56 12.96 13.68L12.84 13.92L12.72 14.0399L13.08 14.28C13.2 14.4 13.2 14.5199 13.2 14.6399C13.08 14.7599 12.96 14.88 12.84 14.76L12.48 14.52L12.12 15L12.48 15.2399C12.6 15.3599 12.6 15.48 12.6 15.6C12.48 15.72 12.36 15.84 12.24 15.72L11.88 15.48L11.52 15.96L11.88 16.2C12 16.32 12 16.44 12 16.56C11.88 16.68 11.76 16.8 11.64 16.68L11.28 16.4399L11.16 16.8C11.04 16.92 10.92 16.92 10.8 16.92C10.68 16.8 10.56 16.68 10.68 16.56L10.8 16.2H10.68L10.44 16.08C10.32 15.96 10.32 15.84 10.32 15.72C10.44 15.6 10.56 15.48 10.68 15.6L10.92 15.72H11.04L11.4 15.2399H11.28L11.04 15.12C10.92 15 10.92 14.88 10.92 14.76C11.04 14.64 11.16 14.5199 11.28 14.6399L11.52 14.76L11.76 14.88L12.12 14.4H12L11.76 14.28C11.64 14.16 11.64 14.04 11.64 13.92C11.76 13.8 11.88 13.68 12 13.8L12.24 13.92H12.36L12.48 13.68C12.6 13.32 12.72 13.32 12.72 13.32ZM8.28 17.28C8.4 18.36 8.88 19.2 9.36 19.56C9.84 19.8 10.8 19.8 11.76 19.32L8.28 17.28Z" fill="white"/>
</svg>
