<svg width="22" height="22" viewBox="0 0 22 22" fill="none" xmlns="http://www.w3.org/2000/svg">
<g id="Group">
<path id="Vector" d="M9.29999 14.8C9.59999 15.1 9.89999 15.1 10.2 14.8C10.5 14.5 10.5 14.2 10.2 13.9L7.89999 11.6H15.6C15.9 11.6 16.2 11.3 16.2 11C16.2 10.7 15.9 10.4 15.6 10.4H7.89999L10.2 8.1C10.5 7.8 10.5 7.5 10.2 7.2C10.1 7.1 9.89999 7 9.69999 7C9.49999 7 9.39999 7.1 9.19999 7.2L5.89999 10.6C5.59999 10.9 5.59999 11.2 5.89999 11.5L9.29999 14.8Z" fill="white"/>
<path id="Vector_2" d="M5.1 22H16.9C19.7 22 22 19.7 22 16.9V5.1C22 2.3 19.7 0 16.9 0H5.1C2.3 0 0 2.3 0 5.1V16.9C0 19.7 2.3 22 5.1 22ZM1.3 5.1C1.3 3 3 1.3 5.1 1.3H16.9C19 1.3 20.7 3 20.7 5.1V16.9C20.7 19 19 20.7 16.9 20.7H5.1C3 20.7 1.3 19 1.3 16.9V5.1Z" fill="white"/>
</g>
</svg>
