<svg width="24" height="24" viewBox="0 0 24 24" fill="none" xmlns="http://www.w3.org/2000/svg">
<g id="Icons">
<path id="Vector" d="M21.4001 13.6C21.4001 18.8 17.2001 23 12.0001 23C6.8001 23 2.6001 18.8 2.6001 13.6C2.6001 11.9 3.1001 10.2 3.9001 8.8L6.3001 10.3C5.7001 11.3 5.4001 12.5 5.4001 13.7C5.4001 17.3 8.3001 20.2 11.9001 20.2C15.5001 20.2 18.4001 17.3 18.4001 13.7C18.4001 10.2 15.7001 7.4 12.3001 7.2H11.0001L12.2001 10.2C12.2001 10.3 12.2001 10.4 12.1001 10.5C12.0001 10.6 11.9001 10.6 11.8001 10.5L6.0001 5.9C5.9001 5.9 5.9001 5.8 5.9001 5.7C5.9001 5.6 5.9001 5.6 6.0001 5.5L11.8001 1H11.9001C12.0001 1 12.0001 1 12.1001 1C12.2001 1.1 12.2001 1.2 12.2001 1.3L11.0001 4.3H12.0001C12.4001 4.3 13.6001 4.4 13.8001 4.5C18.1001 5.3 21.4001 9.1 21.4001 13.6Z" fill="white"/>
</g>
</svg>
