<svg width="24" height="24" viewBox="0 0 24 24" fill="none" xmlns="http://www.w3.org/2000/svg">
<g id="Icons">
<g id="Group">
<path id="Vector" d="M15.7091 3.70909V17.1273C15.7091 17.6727 15.1636 18 14.7273 17.7818C12.3273 16.3636 9.92727 15.3818 7.74546 14.6182L7.41818 14.5091C7.41818 15.0545 7.41818 15.4909 7.41818 16.0364C7.41818 16.4727 7.52727 16.8 7.52727 17.1273C7.52727 17.4545 7.63636 17.5636 7.74546 18.2182C7.96364 19.3091 7.09091 20.4 5.89091 20.6182C5.78182 20.6182 5.67273 20.6182 5.67273 20.6182C4.36364 20.6182 3.27273 19.8545 3.16364 18.6545C3.16364 18.5455 3.16364 18.4364 3.16364 18.4364C3.16364 17.7818 3.27273 17.5636 3.27273 17.3455C3.27273 17.0182 3.27273 16.6909 3.27273 16.2545C3.16364 15.3818 3.05455 14.5091 2.94545 13.6364C2.94545 13.5273 2.94545 13.4182 2.94545 13.4182C2.18182 13.3091 1.52727 13.2 0.763636 13.2C0.327273 13.0909 0 12.8727 0 12.4364V8.29091C0 7.96364 0.327273 7.63636 0.654545 7.63636C2.83636 7.52727 5.23636 7.09091 7.63636 6.32727C10.0364 5.56364 12.4364 4.47273 14.6182 3.16364C15.0545 2.83636 15.7091 3.16364 15.7091 3.70909ZM4.25455 13.6364V13.7455C4.36364 14.5091 4.47273 15.2727 4.58182 16.1455C4.58182 16.5818 4.58182 17.0182 4.58182 17.3455C4.58182 17.6727 4.58182 17.8909 4.47273 18.5455C4.47273 18.5455 4.47273 18.5455 4.47273 18.6545C4.47273 18.9818 4.90909 19.3091 5.45455 19.2H5.56364C6.10909 19.0909 6.32727 18.7636 6.32727 18.4364C6.21818 17.7818 6.10909 17.5636 6.10909 17.2364C6 16.9091 6 16.4727 6 16.0364C6 15.3818 5.89091 14.7273 6 13.9636C5.34545 13.8545 4.8 13.7455 4.25455 13.6364ZM18.6545 13.7455L21.2727 16.4727C21.4909 16.8 21.4909 17.2364 21.2727 17.4545C21.0545 17.6727 20.6182 17.6727 20.4 17.4545L17.8909 14.8364C17.6727 14.5091 17.6727 14.0727 17.8909 13.8545C18 13.5273 18.4364 13.5273 18.6545 13.7455ZM14.2909 4.90909C12.3273 6 10.1455 6.87273 8.07273 7.63636C6.65455 8.07273 5.23636 8.4 3.92727 8.72727V12.2182C5.34545 12.4364 6.76364 12.7636 8.07273 13.2C10.0364 13.8545 12.2182 14.7273 14.2909 15.9273V4.90909ZM2.50909 8.83636C2.18182 8.94546 1.74545 8.94545 1.41818 8.94545V11.7818C1.85455 11.7818 2.18182 11.8909 2.61818 11.8909L2.50909 8.83636ZM23.3455 9.49091C23.7818 9.49091 24 9.81818 24 10.1455C24 10.5818 23.6727 10.8 23.3455 10.8H19.6364C19.2 10.8 18.9818 10.4727 18.9818 10.1455C18.9818 9.70909 19.3091 9.49091 19.6364 9.49091H23.3455ZM21.2727 3.16364C21.6 3.38182 21.6 3.81818 21.2727 4.14545L18.7636 6.76364C18.5455 7.09091 18.1091 7.09091 17.7818 6.76364C17.4545 6.54545 17.4545 6.10909 17.7818 5.78182L20.2909 3.16364C20.5091 2.94545 20.9455 2.94545 21.2727 3.16364Z" fill="white"/>
</g>
</g>
</svg>
