<svg width="21" height="20" viewBox="0 0 21 20" fill="none" xmlns="http://www.w3.org/2000/svg">
<path fill-rule="evenodd" clip-rule="evenodd" d="M0 6.31803C0 8.25999 0.318463 8.91919 1.27385 10.3267C1.8796 11.2175 2.80827 10.6451 2.80827 9.92803C2.80827 9.62292 2.47199 9.25992 2.33168 9.05726C0.650288 6.49397 2.07558 2.99087 4.31818 2.99087C5.65439 2.99087 7.29793 4.60323 7.76783 5.78355C7.93968 6.18791 7.99298 6.6328 7.92149 7.06631C7.82066 7.53828 7.56516 7.96308 7.19549 8.27335C6.5786 8.84347 6.22673 8.90137 6.05525 9.07953C5.38715 9.76323 6.38708 10.5583 6.72336 10.9569L7.26452 11.5515C7.60414 11.9651 7.98384 12.344 8.39808 12.6828C9.06618 13.2396 10.4024 15.0435 11.144 13.6716C11.2834 13.4079 11.4498 13.1594 11.6406 12.93C13.6271 10.4803 17.0389 13.9144 17.0389 15.6203C17.0389 16.6692 16.6247 17.1792 15.8096 17.7293C14.2306 18.796 12.1684 18.58 10.6407 17.4375C9.79219 16.8028 9.08177 16.2884 8.26445 15.6091L5.14663 12.5871C5.08051 12.4918 4.99494 12.4117 4.89555 12.352C4.79617 12.2923 4.68525 12.2543 4.57011 12.2406C4.45498 12.2269 4.33825 12.2378 4.22764 12.2726C4.11703 12.3074 4.01505 12.3652 3.92845 12.4423C3.10223 13.1928 4.4184 14.0814 4.86603 14.5892C5.61653 15.4466 7.15763 16.765 8.07516 17.5221L9.48709 18.5822C9.83673 18.8049 10.1106 19.0276 10.4937 19.2503C13.4734 21.0475 18.6557 19.5176 18.6557 15.6871C18.6557 12.7229 13.9634 8.45597 10.7765 11.5159C10.5071 11.7742 10.3311 12.0236 10.1886 12.1261C9.96124 11.9817 9.75701 11.8037 9.58285 11.5983C9.45591 11.478 9.39132 11.458 9.2577 11.331C8.96596 11.0527 7.93486 10.0305 7.88141 9.76991C8.06625 9.72537 8.06625 9.67415 8.19319 9.54721L8.99492 8.61409C10.2242 6.58973 9.30002 4.60546 7.75447 3.04655C7.32548 2.59733 6.82599 2.22121 6.27573 1.93304C5.99207 1.77349 5.69377 1.64149 5.38492 1.53886C2.19806 0.639145 0 3.75697 0 6.31803Z" fill="white"/>
<path fill-rule="evenodd" clip-rule="evenodd" d="M3.07372 12.3421C3.76187 12.3421 3.99125 12.1194 3.99125 11.4268C3.99125 10.6474 2.53924 10.3935 2.39225 11.4469C2.33658 11.8388 2.71072 12.3377 3.07372 12.3377V12.3421Z" fill="white"/>
<path d="M20.2184 8.45598C20.2184 8.66447 20.1356 8.86443 19.9881 9.01186C19.8407 9.15929 19.6407 9.24211 19.4322 9.24211C19.2237 9.24211 19.0238 9.15929 18.8764 9.01186C18.7289 8.86443 18.6461 8.66447 18.6461 8.45598C18.6432 6.62692 17.9145 4.87378 16.6201 3.58149C15.3257 2.28919 13.5714 1.56336 11.7424 1.56336C11.633 1.57507 11.5224 1.56364 11.4177 1.5298C11.3131 1.49597 11.2167 1.44049 11.1349 1.36697C11.0531 1.29346 10.9877 1.20355 10.9429 1.1031C10.8981 1.00265 10.875 0.893893 10.875 0.783909C10.875 0.673925 10.8981 0.565173 10.9429 0.464719C10.9877 0.364265 11.0531 0.27436 11.1349 0.200845C11.2167 0.12733 11.3131 0.0718526 11.4177 0.0380173C11.5224 0.00418193 11.633 -0.00725354 11.7424 0.0044541C12.8553 0.00269811 13.9578 0.220215 14.9867 0.64458C16.0156 1.06895 16.9508 1.69185 17.7389 2.47771C18.5271 3.26357 19.1527 4.19699 19.58 5.22466C20.0073 6.25234 20.2281 7.35413 20.2295 8.46711L20.2184 8.45598Z" fill="white"/>
<path d="M16.3636 8.25324C16.3636 8.46173 16.2808 8.66169 16.1334 8.80912C15.986 8.95655 15.786 9.03937 15.5775 9.03937C15.369 9.03937 15.1691 8.95655 15.0216 8.80912C14.8742 8.66169 14.7914 8.46173 14.7914 8.25324C14.7885 7.87589 14.7079 7.50319 14.5546 7.15836C14.4013 6.81352 14.1787 6.50395 13.9006 6.24892C13.3113 5.69666 12.5323 5.39208 11.7248 5.3982C11.6154 5.40991 11.5048 5.39848 11.4002 5.36464C11.2955 5.33081 11.1992 5.27533 11.1174 5.20181C11.0356 5.1283 10.9701 5.03839 10.9253 4.93794C10.8806 4.83748 10.8574 4.72873 10.8574 4.61875C10.8574 4.50876 10.8806 4.40001 10.9253 4.29956C10.9701 4.1991 11.0356 4.1092 11.1174 4.03568C11.1992 3.96217 11.2955 3.90669 11.4002 3.87286C11.5048 3.83902 11.6154 3.82759 11.7248 3.83929C12.9356 3.8373 14.1014 4.29865 14.9829 5.12873C15.416 5.52834 15.7618 6.01316 15.9987 6.55276C16.2355 7.09236 16.3582 7.67509 16.3592 8.26437L16.3636 8.25324Z" fill="white"/>
</svg>
