<svg width="24" height="24" viewBox="0 0 24 24" fill="none" xmlns="http://www.w3.org/2000/svg">
<g id="Icons" clip-path="url(#clip0_408_472)">
<g id="Group">
<path id="Vector" d="M21.6775 24C21.3485 24 21.0969 23.7415 21.0969 23.4462L21.155 20.6954H18.0001V23.4646C18.0001 23.76 17.7485 24.0185 17.4195 24.0185C17.0904 24.0185 16.8388 23.7785 16.8388 23.4646V19.0338C16.8388 18.7385 17.0904 18.48 17.4195 18.48C17.7485 18.48 18.0001 18.72 18.0001 19.0338V19.5877H21.3679C21.5614 19.1077 21.7162 18.6277 21.813 18.1292C20.3227 17.5754 18.5808 15.7477 17.7679 14.3077C17.5356 13.9385 17.4195 13.5323 17.4001 13.0892C17.3614 13.0892 17.3227 13.0708 17.284 13.0708L12.3679 16.8738C12.2711 16.9477 12.1356 16.9846 12.0001 16.9846C11.8646 16.9846 11.7292 16.9477 11.6324 16.8554L6.69689 13.0708C6.65818 13.0708 6.61947 13.0892 6.58076 13.0892C6.58076 13.5138 6.44528 13.9385 6.21302 14.3077C5.40012 15.7292 3.65818 17.5569 2.16786 18.1108C2.28399 18.6277 2.43883 19.1446 2.65173 19.6246H6.00012V19.0154C6.00012 18.72 6.25173 18.4615 6.58076 18.4615C6.9098 18.4615 7.16141 18.7015 7.16141 19.0154V23.4462C7.16141 23.7415 6.9098 24 6.58076 24C6.25173 24 6.00012 23.76 6.00012 23.4462V20.7323H2.84528L2.90334 23.4462C2.90334 23.76 2.65173 24 2.34205 24C2.01302 24 1.76141 23.76 1.74205 23.4646L1.68399 20.3077C1.37431 19.6431 1.16141 18.96 1.00657 18.2585C0.96786 18.2585 0.92915 18.24 0.890441 18.2215C0.36786 18.0554 -0.19343 17.5385 0.0581827 16.0246C0.174312 15.3231 0.32915 14.6215 0.522699 13.92C0.793667 12.9415 1.49044 12.1292 2.41947 11.6492C2.90334 11.4092 3.46463 11.28 4.00657 11.28C4.41302 11.28 4.80012 11.3538 5.16786 11.4831C5.5356 11.5938 5.86463 11.7969 6.11625 12.0554C6.58076 11.9631 7.06463 11.8708 7.52915 11.8154L7.62593 11.7969L7.70334 11.8708C7.91625 12.1108 8.14851 12.3323 8.40012 12.5169L8.78722 12.8123C8.78722 12.8123 8.24528 12.8677 8.22593 12.8677L12.0001 15.7292L15.755 12.8492C15.6001 12.8308 15.4259 12.8123 15.2711 12.8123L14.7679 12.7754L15.155 12.48C15.4066 12.2769 15.6582 12.0554 15.8517 11.8154L15.9098 11.7415L16.0066 11.76C16.6259 11.8154 17.2453 11.9262 17.8453 12.0554C18.1162 11.7969 18.4453 11.5938 18.813 11.4831C19.1808 11.3538 19.5679 11.2985 19.9743 11.2985C20.5162 11.2985 21.0775 11.4277 21.5614 11.6677C22.4904 12.1477 23.1872 12.96 23.4582 13.9385C23.6517 14.6215 23.8066 15.3415 23.9227 16.0431C24.1743 17.5569 23.613 18.0738 23.0904 18.24C23.0517 18.2585 23.013 18.2585 22.9743 18.2769C22.8388 18.9785 22.6066 19.68 22.2969 20.3262L22.2388 23.4831C22.2582 23.76 21.9872 24 21.6775 24ZM19.9743 12.3877C19.7033 12.3877 19.4517 12.4246 19.2001 12.5169C18.8711 12.6277 18.6775 12.7754 18.6001 12.9415C18.5227 13.1262 18.6001 13.4215 18.7937 13.7908C19.8388 15.6369 21.8904 17.2062 22.6259 17.2062C22.6646 17.2062 22.684 17.2062 22.7227 17.1877C22.7808 17.1692 22.8969 16.9108 22.7808 16.2092C22.6646 15.5446 22.5292 14.88 22.3356 14.2338C22.1421 13.5508 21.6582 12.9785 21.0195 12.6462C20.7098 12.4615 20.3421 12.3877 19.9743 12.3877ZM4.02592 12.3877C3.65818 12.3877 3.29044 12.48 2.98076 12.6277C2.3227 12.96 1.83883 13.5323 1.66463 14.2154C1.47109 14.8615 1.3356 15.5262 1.21947 16.1908C1.10334 16.8738 1.21947 17.1508 1.27754 17.1692C1.29689 17.1692 1.3356 17.1877 1.37431 17.1877C2.1098 17.1877 4.16141 15.6185 5.20657 13.7723C5.41947 13.4031 5.47754 13.1262 5.40012 12.9415C5.34205 12.7754 5.12915 12.6277 4.80012 12.5169C4.54851 12.4246 4.27754 12.3877 4.02592 12.3877Z" fill="white"/>
<path id="Vector_2" d="M9.87096 19.5692C9.54193 19.5692 9.29031 19.3108 9.29031 19.0154C9.29031 18.72 9.54193 18.4615 9.87096 18.4615H14.129C14.4581 18.4615 14.7097 18.72 14.7097 19.0154C14.7097 19.3108 14.4581 19.5692 14.129 19.5692H9.87096Z" fill="white"/>
<path id="Vector_3" d="M9.87096 22.8923C9.71612 22.8923 9.56128 22.8369 9.46451 22.7262C9.34838 22.6154 9.29031 22.4862 9.29031 22.3385C9.29031 22.0431 9.54193 21.7846 9.87096 21.7846H14.129C14.2839 21.7846 14.4387 21.84 14.5355 21.9508C14.6516 22.0615 14.7097 22.1908 14.7097 22.3385C14.7097 22.6338 14.4581 22.8923 14.129 22.8923H9.87096Z" fill="white"/>
<path id="Vector_4" d="M11.4193 13.0708C7.68387 13.0708 6.87096 9.69231 6.69677 8.52923C6.50322 8.38154 6.32903 8.21538 6.19354 8.03077L6.13548 7.93846L5.76774 6.44308L5.57419 6.07385V5.94462C5.59354 2.65846 8.38064 0 11.8064 0C15.2516 0 18.0387 2.65846 18.0387 5.92615V6.09231L17.7677 6.46154L17.4193 7.93846L17.3613 8.01231C17.2064 8.21539 17.0516 8.38154 16.8581 8.52923C16.6839 9.69231 15.871 13.0708 12.1355 13.0708C12.0968 13.0708 12.0387 13.0708 12 13.0708H11.5548C11.4968 13.0523 11.4581 13.0708 11.4193 13.0708ZM10.0645 11.7046C10.4903 11.8708 10.9161 11.9446 11.3806 11.9446C11.4387 11.9446 11.4774 11.9446 11.5355 11.9446H12C12.0581 11.9446 12.1161 11.9446 12.1548 11.9446C12.6 11.9446 13.0452 11.8708 13.471 11.7046C13.471 11.6308 13.4516 11.52 13.4516 11.3908H10.0839C10.0839 11.52 10.0645 11.6308 10.0645 11.7046ZM14.2452 9.65539C14.4 10.08 14.5161 10.5231 14.5742 10.9662C15.0581 10.4492 15.3484 9.82154 15.5032 9.26769C15.0968 9.43385 14.671 9.56308 14.2452 9.65539ZM8.03225 9.26769C8.20645 9.80308 8.47741 10.4492 8.96128 10.9477C9.01935 10.5046 9.13548 10.0615 9.29032 9.63692C8.86451 9.56308 8.4387 9.43385 8.03225 9.26769ZM13.2387 10.3015C13.1806 10.1354 13.1226 9.98769 13.0645 9.84C12.6581 9.87692 12.2323 9.89538 11.8064 9.89538H11.7484C11.3226 9.89538 10.9161 9.87692 10.4903 9.84C10.4129 9.98769 10.3548 10.1354 10.3161 10.3015H13.2387ZM7.21935 7.47692C7.4129 7.68 8.14838 8.34461 9.89032 8.64C10.2968 8.12308 10.8968 7.79077 11.5548 7.71692V7.68H11.7484H11.8064C12.5419 7.73538 13.2 8.08615 13.6452 8.62154C15.3871 8.32615 16.1226 7.66154 16.3161 7.45846L16.4323 6.94154C15.0774 7.23692 13.6839 7.38462 12.2903 7.38462H12.0774C11.9806 7.38462 11.8839 7.38462 11.7871 7.38462C11.6323 7.38462 11.4774 7.38462 11.3226 7.38462C9.89032 7.38462 8.45806 7.23692 7.08387 6.92308L7.21935 7.47692ZM12.3871 6.29538C14.671 6.27692 16.2193 5.90769 16.8581 5.70462C16.7419 3.34154 14.8645 1.40308 12.3871 1.14462V6.29538ZM6.75483 5.70462C7.43225 5.90769 8.96128 6.25846 11.2258 6.29538V1.14462C8.74838 1.40308 6.87096 3.32308 6.75483 5.70462Z" fill="white"/>
</g>
</g>
<defs>
<clipPath id="clip0_408_472">
<rect width="24" height="24" fill="white"/>
</clipPath>
</defs>
</svg>
