<svg width="16" height="17" viewBox="0 0 16 17" fill="none" xmlns="http://www.w3.org/2000/svg">
<g id="Icons">
<path id="Vector" d="M14.2667 9.56666C14.2667 13.0333 11.4667 15.8333 8 15.8333C4.53333 15.8333 1.73333 13.0333 1.73333 9.56666C1.73333 8.43332 2.06666 7.29999 2.6 6.36666L4.2 7.36666C3.8 8.03332 3.6 8.83332 3.6 9.63332C3.6 12.0333 5.53333 13.9667 7.93333 13.9667C10.3333 13.9667 12.2667 12.0333 12.2667 9.63332C12.2667 7.29999 10.4667 5.43332 8.2 5.29999H7.33333L8.13333 7.29999C8.13333 7.36666 8.13333 7.43332 8.06666 7.49999C8 7.56666 7.93333 7.56666 7.86666 7.49999L4 4.43332C3.93333 4.43332 3.93333 4.36666 3.93333 4.29999C3.93333 4.23332 3.93333 4.23332 4 4.16666L7.86666 1.16666H7.93333C8 1.16666 8 1.16666 8.06666 1.16666C8.13333 1.23332 8.13333 1.29999 8.13333 1.36666L7.33333 3.36666H8C8.26666 3.36666 9.06666 3.43332 9.2 3.49999C12.0667 4.03332 14.2667 6.56666 14.2667 9.56666Z" fill="#6E6980" fill-opacity="0.4"/>
</g>
</svg>
