<svg width="24" height="24" viewBox="0 0 24 24" fill="none" xmlns="http://www.w3.org/2000/svg">
<path d="M13.4412 19C13.7126 19 13.9839 18.8957 14.1799 18.6872L18.6718 14.2489C19.0637 13.8617 19.124 13.2213 18.7472 12.8489L14.1949 8.33617C13.7879 7.93404 13.1247 7.93404 12.7026 8.33617C12.2956 8.7383 12.2956 9.39362 12.7026 9.81064L15.3857 12.4766H7.11031V6.04255C7.11031 5.4617 6.64303 5 6.05516 5C5.46728 5 5 5.4617 5 6.04255V13.5191C5 14.1 5.46728 14.5617 6.05516 14.5617H15.4008L12.7026 17.2277C12.2956 17.6298 12.2956 18.2851 12.7026 18.7021C12.9137 18.8957 13.185 19 13.4412 19Z" fill="white"/>
</svg>
