<svg width="24" height="24" viewBox="0 0 24 24" fill="none" xmlns="http://www.w3.org/2000/svg">
<g id="Icons">
<g id="Group">
<path id="Vector" d="M16.3 23H7.7C4 23 1 20 1 16.3V9C1.1 5.7 3.6 2.9 6.9 2.5V1.7C6.9 1.3 7.2 1 7.6 1C8 1 8.3 1.3 8.3 1.7V2.4H15.6V1.7C15.7 1.3 16 1 16.4 1C16.8 1 17.1 1.3 17.1 1.7V2.5C20.4 2.9 22.9 5.7 23 9V16.3C23 20 20 23 16.3 23ZM2.5 9.8V16.3C2.5 19.2 4.8 21.5 7.7 21.5H16.3C19.2 21.5 21.5 19.2 21.5 16.3V9.8H2.5ZM2.5 8.3H21.4C21 6.1 19.3 4.3 17.1 4V4.7C17.1 5.1 16.8 5.4 16.4 5.4C16 5.4 15.7 5.1 15.7 4.7V3.9H8.3V4.6C8.3 5 8 5.3 7.6 5.3C7.2 5.3 6.9 5 6.9 4.6V4C4.6 4.4 2.9 6.1 2.5 8.3ZM19.3 18.6H17.8C17.4 18.6 17.1 18.3 17.1 17.9V16.4C17.1 16 17.4 15.7 17.8 15.7H19.3C19.7 15.7 20 16 20 16.4V17.9C20.1 18.3 19.7 18.6 19.3 18.6ZM14.9 18.6H13.4C13 18.6 12.7 18.3 12.7 17.9V16.4C12.7 16 13 15.7 13.4 15.7H14.9C15.3 15.7 15.6 16 15.6 16.4V17.9C15.7 18.3 15.3 18.6 14.9 18.6ZM10.5 18.6H9.1C8.7 18.6 8.4 18.3 8.4 17.9V16.4C8.4 16 8.7 15.7 9.1 15.7H10.6C11 15.7 11.3 16 11.3 16.4V17.9C11.3 18.3 10.9 18.6 10.5 18.6ZM6.1 18.6H4.7C4.3 18.6 4 18.3 4 17.9V16.4C4 16 4.3 15.7 4.7 15.7H6.2C6.6 15.7 6.9 16 6.9 16.4V17.9C6.9 18.3 6.5 18.6 6.1 18.6ZM19.3 14.2H17.8C17.4 14.2 17.1 13.9 17.1 13.5V12C17.1 11.6 17.4 11.3 17.8 11.3H19.3C19.7 11.3 20 11.6 20 12V13.5C20.1 13.9 19.7 14.2 19.3 14.2ZM14.9 14.2H13.4C13 14.2 12.7 13.9 12.7 13.5V12C12.7 11.6 13 11.3 13.4 11.3H14.9C15.3 11.3 15.6 11.6 15.6 12V13.5C15.7 13.9 15.3 14.2 14.9 14.2ZM10.5 14.2H9.1C8.7 14.2 8.4 13.9 8.4 13.5V12C8.4 11.6 8.7 11.3 9.1 11.3H10.6C11 11.3 11.3 11.6 11.3 12V13.5C11.3 13.9 10.9 14.2 10.5 14.2ZM6.1 14.2H4.7C4.3 14.2 4 13.9 4 13.5V12C4 11.6 4.3 11.3 4.7 11.3H6.2C6.6 11.3 6.9 11.6 6.9 12V13.5C6.9 13.9 6.5 14.2 6.1 14.2Z" fill="white"/>
</g>
</g>
</svg>
