<svg width="20" height="17" viewBox="0 0 20 17" fill="none" xmlns="http://www.w3.org/2000/svg">
<path fill-rule="evenodd" clip-rule="evenodd" d="M4.4186 7.90697C1.97953 7.90697 0 9.88651 0 12.3256C0 14.7646 1.97953 16.7442 4.4186 16.7442C6.85767 16.7442 8.83721 14.7646 8.83721 12.3256C8.83721 9.88651 6.85767 7.90697 4.4186 7.90697ZM4.4186 9.30232C6.08744 9.30232 7.44186 10.6567 7.44186 12.3256C7.44186 13.9944 6.08744 15.3488 4.4186 15.3488C2.74977 15.3488 1.39535 13.9944 1.39535 12.3256C1.39535 10.6567 2.74977 9.30232 4.4186 9.30232Z" fill="white"/>
<path fill-rule="evenodd" clip-rule="evenodd" d="M15.5807 7.90697C13.1416 7.90697 11.1621 9.88651 11.1621 12.3256C11.1621 14.7646 13.1416 16.7442 15.5807 16.7442C18.0198 16.7442 19.9993 14.7646 19.9993 12.3256C19.9993 9.88651 18.0198 7.90697 15.5807 7.90697ZM15.5807 9.30232C17.2496 9.30232 18.604 10.6567 18.604 12.3256C18.604 13.9944 17.2496 15.3488 15.5807 15.3488C13.9119 15.3488 12.5575 13.9944 12.5575 12.3256C12.5575 10.6567 13.9119 9.30232 15.5807 9.30232Z" fill="white"/>
<path fill-rule="evenodd" clip-rule="evenodd" d="M12.5575 12.3256V5.71721C12.5575 5.18791 12.7677 4.68 13.1426 4.30605C13.5165 3.93117 14.0244 3.72093 14.5537 3.72093H14.5565C15.4142 3.72093 16.1723 4.27814 16.4282 5.09675L18.1705 10.6735C18.2858 11.0409 18.6775 11.2456 19.0449 11.1312C19.4123 11.0158 19.617 10.6242 19.5026 10.2567C19.5026 10.2567 18.4486 6.88558 17.7602 4.68093C17.3221 3.28 16.0244 2.32558 14.5565 2.32558H14.5537C13.6542 2.32558 12.7919 2.68279 12.1556 3.31907C11.5193 3.95535 11.1621 4.81768 11.1621 5.71721C11.1621 8.46419 11.1621 12.3256 11.1621 12.3256C11.1621 12.7107 11.4747 13.0233 11.8598 13.0233C12.2449 13.0233 12.5575 12.7107 12.5575 12.3256Z" fill="white"/>
<path fill-rule="evenodd" clip-rule="evenodd" d="M8.83705 12.3256V5.71721C8.83705 4.81768 8.47984 3.95535 7.84356 3.31907C7.20728 2.68279 6.34495 2.32558 5.44542 2.32558H5.44263C3.97472 2.32558 2.67705 3.28 2.23891 4.68093L0.496583 10.2567C0.382164 10.6242 0.586815 11.0158 0.954257 11.1312C1.3217 11.2456 1.71333 11.0409 1.82868 10.6735L3.571 5.09675C3.82682 4.27814 4.58495 3.72093 5.44263 3.72093H5.44542C5.97472 3.72093 6.48263 3.93117 6.85658 4.30605C7.23147 4.68 7.4417 5.18791 7.4417 5.71721V12.3256C7.4417 12.7107 7.75426 13.0233 8.13937 13.0233C8.52449 13.0233 8.83705 12.7107 8.83705 12.3256Z" fill="white"/>
<path fill-rule="evenodd" clip-rule="evenodd" d="M12.5575 5.81395V2.09302C12.5575 1.90791 12.6309 1.73023 12.7621 1.6C12.8923 1.46884 13.07 1.39535 13.2551 1.39535H13.683C13.9742 1.39535 14.2347 1.57581 14.337 1.84837C14.5816 2.5014 14.8691 3.26791 14.8691 3.26791C15.0049 3.62884 15.4068 3.81209 15.7677 3.67628C16.1277 3.5414 16.3109 3.1386 16.1761 2.7786C16.1761 2.7786 15.8886 2.01116 15.643 1.35814C15.337 0.541395 14.5556 0 13.683 0C13.5444 0 13.4002 0 13.2551 0C12.6998 0 12.1677 0.220465 11.7751 0.613023C11.3826 1.00558 11.1621 1.53767 11.1621 2.09302V5.81395C11.1621 6.19907 11.4747 6.51163 11.8598 6.51163C12.2449 6.51163 12.5575 6.19907 12.5575 5.81395Z" fill="white"/>
<path fill-rule="evenodd" clip-rule="evenodd" d="M8.83759 5.81395V2.09302C8.83759 1.53767 8.61713 1.00558 8.22457 0.613023C7.83201 0.220465 7.29992 0 6.74457 0H6.31666C5.4441 0 4.66271 0.541395 4.35666 1.35814C4.11108 2.01116 3.82364 2.7786 3.82364 2.7786C3.68876 3.1386 3.87201 3.5414 4.23201 3.67628C4.59294 3.81209 4.9948 3.62884 5.13062 3.26791C5.13062 3.26791 5.41806 2.5014 5.66271 1.84837C5.76504 1.57581 6.0255 1.39535 6.31666 1.39535H6.74457C6.92969 1.39535 7.10736 1.46884 7.23759 1.6C7.36876 1.73023 7.44224 1.90791 7.44224 2.09302V5.81395C7.44224 6.19907 7.7548 6.51163 8.13992 6.51163C8.52504 6.51163 8.83759 6.19907 8.83759 5.81395Z" fill="white"/>
<path fill-rule="evenodd" clip-rule="evenodd" d="M8.13908 13.0233H11.86C12.2451 13.0233 12.5577 12.7107 12.5577 12.3256C12.5577 11.9405 12.2451 11.6279 11.86 11.6279H8.13908C7.75396 11.6279 7.44141 11.9405 7.44141 12.3256C7.44141 12.7107 7.75396 13.0233 8.13908 13.0233Z" fill="white"/>
<path fill-rule="evenodd" clip-rule="evenodd" d="M8.13908 6.51163H11.86C12.2451 6.51163 12.5577 6.19907 12.5577 5.81395C12.5577 5.42884 12.2451 5.11628 11.86 5.11628H8.13908C7.75396 5.11628 7.44141 5.42884 7.44141 5.81395C7.44141 6.19907 7.75396 6.51163 8.13908 6.51163Z" fill="white"/>
</svg>
