<svg width="19" height="19" viewBox="0 0 19 19" fill="none" xmlns="http://www.w3.org/2000/svg">
<path d="M9.23049 11.5474C10.4857 11.5474 11.5032 10.5299 11.5032 9.27468C11.5032 8.01949 10.4857 7.00195 9.23049 7.00195C7.9753 7.00195 6.95776 8.01949 6.95776 9.27468C6.95776 10.5299 7.9753 11.5474 9.23049 11.5474Z" stroke="white" stroke-width="1.5" stroke-linecap="round" stroke-linejoin="round"/>
<path d="M14.8366 11.5475C14.7358 11.776 14.7057 12.0294 14.7502 12.2752C14.7948 12.5209 14.912 12.7477 15.0866 12.9263L15.1321 12.9717C15.2729 13.1124 15.3847 13.2795 15.4609 13.4635C15.5372 13.6474 15.5764 13.8446 15.5764 14.0437C15.5764 14.2428 15.5372 14.44 15.4609 14.6239C15.3847 14.8078 15.2729 14.9749 15.1321 15.1156C14.9913 15.2565 14.8242 15.3683 14.6403 15.4445C14.4564 15.5208 14.2592 15.56 14.0601 15.56C13.861 15.56 13.6638 15.5208 13.4799 15.4445C13.2959 15.3683 13.1288 15.2565 12.9881 15.1156L12.9427 15.0702C12.7641 14.8955 12.5374 14.7784 12.2916 14.7338C12.0458 14.6893 11.7924 14.7194 11.5639 14.8202C11.3398 14.9162 11.1487 15.0757 11.0141 15.2789C10.8795 15.4822 10.8073 15.7204 10.8063 15.9641V16.0929C10.8063 16.4948 10.6467 16.8802 10.3625 17.1643C10.0784 17.4484 9.693 17.6081 9.29116 17.6081C8.88931 17.6081 8.50393 17.4484 8.21978 17.1643C7.93564 16.8802 7.776 16.4948 7.776 16.0929V16.0247C7.77014 15.774 7.68897 15.5308 7.54306 15.3268C7.39714 15.1228 7.19323 14.9674 6.95782 14.8808C6.72933 14.78 6.47586 14.7499 6.2301 14.7944C5.98435 14.839 5.75758 14.9562 5.57903 15.1308L5.53358 15.1763C5.39286 15.3171 5.22576 15.4289 5.04182 15.5051C4.85789 15.5814 4.66073 15.6206 4.46161 15.6206C4.2625 15.6206 4.06533 15.5814 3.8814 15.5051C3.69746 15.4289 3.53036 15.3171 3.38964 15.1763C3.24877 15.0355 3.13701 14.8684 3.06076 14.6845C2.98451 14.5006 2.94527 14.3034 2.94527 14.1043C2.94527 13.9052 2.98451 13.708 3.06076 13.5241C3.13701 13.3401 3.24877 13.173 3.38964 13.0323L3.4351 12.9869C3.60974 12.8083 3.7269 12.5815 3.77146 12.3358C3.81602 12.09 3.78594 11.8366 3.6851 11.6081C3.58906 11.384 3.42961 11.1929 3.22636 11.0583C3.02311 10.9237 2.78493 10.8515 2.54116 10.8505H2.41237C2.01053 10.8505 1.62514 10.6909 1.34099 10.4067C1.05685 10.1226 0.897217 9.73719 0.897217 9.33535C0.897217 8.9335 1.05685 8.54812 1.34099 8.26397C1.62514 7.97983 2.01053 7.82019 2.41237 7.82019H2.48055C2.7313 7.81433 2.97449 7.73316 3.1785 7.58725C3.38251 7.44133 3.53791 7.23742 3.62449 7.00201C3.72533 6.77352 3.75542 6.52005 3.71086 6.27429C3.6663 6.02854 3.54914 5.80177 3.37449 5.62322L3.32903 5.57777C3.18816 5.43705 3.07641 5.26995 3.00016 5.08601C2.92391 4.90208 2.88466 4.70491 2.88466 4.5058C2.88466 4.30669 2.92391 4.10952 3.00016 3.92559C3.07641 3.74165 3.18816 3.57455 3.32903 3.43383C3.46975 3.29296 3.63686 3.1812 3.82079 3.10495C4.00473 3.0287 4.20189 2.98946 4.401 2.98946C4.60012 2.98946 4.79728 3.0287 4.98122 3.10495C5.16515 3.1812 5.33226 3.29296 5.47297 3.43383L5.51843 3.47929C5.69697 3.65393 5.92374 3.77109 6.1695 3.81565C6.41525 3.86021 6.66872 3.83013 6.89722 3.72929H6.95782C7.18189 3.63325 7.37299 3.4738 7.50759 3.27055C7.64219 3.0673 7.71443 2.82912 7.7154 2.58535V2.45656C7.7154 2.05471 7.87503 1.66933 8.15918 1.38518C8.44332 1.10104 8.82871 0.941406 9.23055 0.941406C9.63239 0.941406 10.0178 1.10104 10.3019 1.38518C10.5861 1.66933 10.7457 2.05471 10.7457 2.45656V2.52474C10.7467 2.76852 10.8189 3.00669 10.9535 3.20994C11.0881 3.41319 11.2792 3.57265 11.5033 3.66868C11.7318 3.76952 11.9852 3.79961 12.231 3.75505C12.4767 3.71049 12.7035 3.59333 12.8821 3.41868L12.9275 3.37322C13.0682 3.23235 13.2353 3.1206 13.4193 3.04435C13.6032 2.9681 13.8004 2.92885 13.9995 2.92885C14.1986 2.92885 14.3958 2.9681 14.5797 3.04435C14.7636 3.1206 14.9307 3.23235 15.0715 3.37322C15.2123 3.51394 15.3241 3.68105 15.4003 3.86498C15.4766 4.04892 15.5158 4.24608 15.5158 4.44519C15.5158 4.64431 15.4766 4.84147 15.4003 5.02541C15.3241 5.20934 15.2123 5.37645 15.0715 5.51716L15.026 5.56262C14.8514 5.74116 14.7342 5.96793 14.6896 6.21369C14.6451 6.45944 14.6752 6.71291 14.776 6.94141V7.00201C14.872 7.22608 15.0315 7.41718 15.2347 7.55178C15.438 7.68638 15.6762 7.75862 15.9199 7.75959H16.0487C16.4506 7.75959 16.836 7.91922 17.1201 8.20337C17.4043 8.48751 17.5639 8.8729 17.5639 9.27474C17.5639 9.67658 17.4043 10.062 17.1201 10.3461C16.836 10.6303 16.4506 10.7899 16.0487 10.7899H15.9805C15.7368 10.7909 15.4986 10.8631 15.2953 10.9977C15.0921 11.1323 14.9326 11.3234 14.8366 11.5475Z" stroke="white" stroke-width="1.5" stroke-linecap="round" stroke-linejoin="round"/>
</svg>
