<svg width="24" height="24" viewBox="0 0 24 24" fill="none" xmlns="http://www.w3.org/2000/svg">
<g id="Icons">
<g id="Group">
<path id="Vector" d="M11.0001 6.5C10.8001 6.5 10.7001 6.5 10.5001 6.4C10.2001 6.2 10.1001 5.8 10.2001 5.5L10.4001 4.9L10.0001 4.5C9.7001 4.3 9.6001 3.9 9.7001 3.6C9.8001 3.3 10.1001 3.1 10.4001 3.1H11.0001L11.2001 2.5C11.3001 2.2 11.6001 2 11.9001 2C12.2001 2 12.5001 2.2 12.6001 2.5L12.8001 3.1H13.4001C13.7001 3.1 14.0001 3.3 14.1001 3.6C14.2001 3.9 14.1001 4.3 13.8001 4.5L13.3001 4.9L13.5001 5.5C13.6001 5.8 13.5001 6.2 13.2001 6.4C12.9001 6.6 12.5001 6.6 12.3001 6.4L12.0001 5.9L11.5001 6.3C11.4001 6.4 11.2001 6.5 11.0001 6.5Z" fill="white"/>
<path id="Vector_2" d="M9.1 22.1C8.7 22.1 8.3 21.7 8.3 21.3V17.4H3.6V21.3C3.6 21.7 3.2 22.1 2.8 22.1C2.4 22.1 2 21.8 2 21.3V16.6C2 16.2 2.4 15.8 2.8 15.8H9.1C9.5 15.8 9.9 16.2 9.9 16.6V21.3C9.9 21.8 9.5 22.1 9.1 22.1Z" fill="white"/>
<path id="Vector_3" d="M21.2001 22.1C20.8001 22.1 20.4001 21.7 20.4001 21.3V17.4H15.7001V21.3C15.7001 21.7 15.3001 22.1 14.9001 22.1C14.5001 22.1 14.1001 21.7 14.1001 21.3V16.6C14.1001 16.2 14.5001 15.8 14.9001 15.8H21.2001C21.6001 15.8 22.0001 16.2 22.0001 16.6V21.3C22.0001 21.8 21.6001 22.1 21.2001 22.1Z" fill="white"/>
<path id="Vector_4" d="M18.1 17.4C17.7 17.4 17.3 17 17.3 16.6V12.7H6.70001V16.6C6.70001 17 6.30001 17.4 5.90001 17.4C5.50001 17.4 5.10001 17 5.10001 16.6V11.9C5.10001 11.5 5.50001 11.1 5.90001 11.1H18C18.4 11.1 18.8 11.5 18.8 11.9V16.6C18.9 17 18.5 17.4 18.1 17.4Z" fill="white"/>
<path id="Vector_5" d="M12 12.7C11.6 12.7 11.2 12.3 11.2 11.9V8.7C11.2 8.3 11.6 7.9 12 7.9C12.4 7.9 12.8 8.3 12.8 8.7V11.8C12.8 12.3 12.4 12.7 12 12.7Z" fill="white"/>
</g>
</g>
</svg>
