<svg width="24" height="24" viewBox="0 0 24 24" fill="none" xmlns="http://www.w3.org/2000/svg">
<g id="Icons">
<path id="Vector" fill-rule="evenodd" clip-rule="evenodd" d="M21.2779 22H2.80325C2.30122 22 2 21.7 2 21.2V2.8C2 2.3 2.30122 2 2.80325 2C3.30528 2 3.60649 2.3 3.60649 2.8V20.3H21.1775C21.6795 20.3 21.9808 20.6 21.9808 21.1C22.0812 21.7 21.78 22 21.2779 22ZM17.0609 18.7C16.5588 18.7 16.2576 18.4 16.2576 17.9V8.7C16.2576 8.2 16.5588 7.9 17.0609 7.9C17.5629 7.9 17.8641 8.2 17.8641 8.7V17.9C17.8641 18.3 17.5629 18.7 17.0609 18.7ZM13.7475 18.7C13.2455 18.7 12.9442 18.4 12.9442 17.9V12C12.9442 11.5 13.2455 11.2 13.7475 11.2C14.2495 11.2 14.5507 11.5 14.5507 12V17.8C14.5507 18.3 14.2495 18.7 13.7475 18.7ZM10.3337 18.7C9.83166 18.7 9.53044 18.4 9.53044 17.9V4.5C9.53044 4 9.83166 3.7 10.3337 3.7C10.8357 3.7 11.1369 4 11.1369 4.5V17.8C11.2373 18.3 10.8357 18.7 10.3337 18.7ZM7.02029 18.7C6.51826 18.7 6.21705 18.4 6.21705 17.9V9.5C6.21705 9 6.51826 8.7 7.02029 8.7C7.52232 8.7 7.82354 9 7.82354 9.5V17.8C7.82354 18.3 7.52232 18.7 7.02029 18.7Z" fill="white"/>
</g>
</svg>
